<svg width="1440" height="893" viewBox="0 0 1440 893" fill="none" xmlns="http://www.w3.org/2000/svg">
<path fill-rule="evenodd" clip-rule="evenodd" d="M317.741 377.275L262.039 371.106L221.774 323L221.034 323.619L221 323.638L250.733 376.635L223.151 430.91L223.154 430.911L223.931 431.542L262.163 384.436L317.86 378.268L317.75 377.275L317.741 377.276L317.741 377.275Z" fill="black"/>
<path fill-rule="evenodd" clip-rule="evenodd" d="M119.259 380.275L174.961 374.106L215.226 326L215.966 326.619L216 326.638L186.267 379.635L213.849 433.91L213.846 433.911L213.069 434.542L174.837 387.436L119.14 381.268L119.25 380.275L119.259 380.276L119.259 380.275Z" fill="black"/>
<path fill-rule="evenodd" clip-rule="evenodd" d="M547.741 377.275L492.039 371.106L451.774 323L451.034 323.619L451 323.638L480.733 376.635L453.151 430.91L453.154 430.911L453.931 431.542L492.162 384.436L547.86 378.268L547.75 377.275L547.741 377.276L547.741 377.275Z" fill="black"/>
<path fill-rule="evenodd" clip-rule="evenodd" d="M349.259 380.275L404.961 374.106L445.226 326L445.966 326.619L446 326.638L416.267 379.635L443.849 433.91L443.846 433.911L443.069 434.542L404.837 387.436L349.14 381.268L349.25 380.275L349.259 380.276L349.259 380.275Z" fill="black"/>
<path fill-rule="evenodd" clip-rule="evenodd" d="M764.741 377.275L709.039 371.106L668.774 323L668.034 323.619L668 323.638L697.733 376.635L670.151 430.91L670.154 430.911L670.931 431.542L709.162 384.436L764.86 378.268L764.75 377.275L764.741 377.276L764.741 377.275Z" fill="black"/>
<path fill-rule="evenodd" clip-rule="evenodd" d="M566.259 380.275L621.961 374.106L662.226 326L662.966 326.619L663 326.638L633.267 379.635L660.849 433.91L660.846 433.911L660.069 434.542L621.837 387.436L566.14 381.268L566.25 380.275L566.259 380.276L566.259 380.275Z" fill="black"/>
<path fill-rule="evenodd" clip-rule="evenodd" d="M982.741 381.275L927.039 375.106L886.774 327L886.034 327.619L886 327.638L915.733 380.635L888.151 434.91L888.154 434.911L888.931 435.542L927.162 388.436L982.86 382.268L982.75 381.275L982.741 381.276L982.741 381.275Z" fill="black"/>
<path fill-rule="evenodd" clip-rule="evenodd" d="M784.259 384.275L839.961 378.106L880.226 330L880.966 330.619L881 330.638L851.267 383.635L878.849 437.91L878.846 437.911L878.069 438.542L839.838 391.436L784.14 385.268L784.25 384.275L784.259 384.276L784.259 384.275Z" fill="black"/>
<path fill-rule="evenodd" clip-rule="evenodd" d="M1008.26 380.275L1063.96 374.106L1104.23 326L1104.97 326.619L1105 326.638L1075.27 379.635L1102.85 433.91L1102.85 433.911L1102.07 434.542L1063.84 387.436L1008.14 381.268L1008.25 380.275L1008.26 380.276L1008.26 380.275Z" fill="black"/>
<path fill-rule="evenodd" clip-rule="evenodd" d="M96.7411 377.275L41.0388 371.106L0.774059 323L0.0340688 323.619L0 323.638L29.7335 376.635L2.15081 430.91L2.15437 430.911L2.93068 431.542L41.1625 384.436L96.8605 378.268L96.7504 377.275L96.741 377.276L96.7411 377.275Z" fill="black"/>
<path fill-rule="evenodd" clip-rule="evenodd" d="M318.881 638.275L263.178 632.106L222.914 584L222.174 584.619L222.14 584.638L251.873 637.635L224.29 691.91L224.294 691.911L225.07 692.542L263.302 645.436L319 639.268L318.89 638.275L318.881 638.276L318.881 638.275Z" fill="black"/>
<path fill-rule="evenodd" clip-rule="evenodd" d="M120.399 641.275L176.101 635.106L216.366 587L217.106 587.619L217.14 587.638L187.406 640.635L214.989 694.91L214.985 694.911L214.209 695.542L175.977 648.436L120.279 642.268L120.389 641.275L120.399 641.276L120.399 641.275Z" fill="black"/>
<path fill-rule="evenodd" clip-rule="evenodd" d="M548.881 638.275L493.178 632.106L452.914 584L452.174 584.619L452.14 584.638L481.873 637.635L454.29 691.91L454.294 691.911L455.07 692.542L493.302 645.436L549 639.268L548.89 638.275L548.881 638.276L548.881 638.275Z" fill="black"/>
<path fill-rule="evenodd" clip-rule="evenodd" d="M350.399 641.275L406.101 635.106L446.366 587L447.106 587.619L447.14 587.638L417.406 640.635L444.989 694.91L444.985 694.911L444.209 695.542L405.977 648.436L350.279 642.268L350.389 641.275L350.399 641.276L350.399 641.275Z" fill="black"/>
<path fill-rule="evenodd" clip-rule="evenodd" d="M765.881 638.275L710.178 632.106L669.914 584L669.174 584.619L669.14 584.638L698.873 637.635L671.29 691.91L671.294 691.911L672.07 692.542L710.302 645.436L766 639.268L765.89 638.275L765.881 638.276L765.881 638.275Z" fill="black"/>
<path fill-rule="evenodd" clip-rule="evenodd" d="M567.399 641.275L623.101 635.106L663.366 587L664.106 587.619L664.14 587.638L634.406 640.635L661.989 694.91L661.985 694.911L661.209 695.542L622.977 648.436L567.279 642.268L567.389 641.275L567.399 641.276L567.399 641.275Z" fill="black"/>
<path fill-rule="evenodd" clip-rule="evenodd" d="M983.881 642.274L928.178 636.106L887.914 588L887.174 588.619L887.14 588.638L916.873 641.635L889.29 695.91L889.294 695.911L890.07 696.542L928.302 649.436L984 643.268L983.89 642.275L983.881 642.276L983.881 642.274Z" fill="black"/>
<path fill-rule="evenodd" clip-rule="evenodd" d="M785.399 645.274L841.101 639.106L881.366 591L882.106 591.619L882.14 591.638L852.406 644.635L879.989 698.91L879.985 698.911L879.209 699.542L840.977 652.436L785.279 646.268L785.389 645.275L785.399 645.276L785.399 645.274Z" fill="black"/>
<path fill-rule="evenodd" clip-rule="evenodd" d="M1009.4 641.275L1065.1 635.106L1105.37 587L1106.11 587.619L1106.14 587.638L1076.41 640.635L1103.99 694.91L1103.99 694.911L1103.21 695.542L1064.98 648.436L1009.28 642.268L1009.39 641.275L1009.4 641.276L1009.4 641.275Z" fill="black"/>
<path fill-rule="evenodd" clip-rule="evenodd" d="M97.8807 638.275L42.1784 632.106L1.91371 584L1.17372 584.619L1.13965 584.638L30.8731 637.635L3.29046 691.91L3.29402 691.911L4.07033 692.542L42.3021 645.436L98.0001 639.268L97.89 638.275L97.8806 638.276L97.8807 638.275Z" fill="black"/>
<path fill-rule="evenodd" clip-rule="evenodd" d="M881.462 449.275L825.759 443.106L785.495 395L784.755 395.619L784.721 395.638L814.454 448.635L786.872 502.91L786.875 502.911L787.651 503.542L825.883 456.436L881.581 450.268L881.471 449.275L881.462 449.276L881.462 449.275Z" fill="black"/>
<path fill-rule="evenodd" clip-rule="evenodd" d="M770.462 514.275L714.759 508.106L674.495 460L673.755 460.619L673.721 460.638L703.454 513.635L675.872 567.91L675.875 567.911L676.651 568.542L714.883 521.436L770.581 515.268L770.471 514.275L770.462 514.276L770.462 514.275Z" fill="black"/>
<path fill-rule="evenodd" clip-rule="evenodd" d="M794.84 514.275L850.542 508.106L890.807 460L891.547 460.619L891.581 460.638L861.848 513.635L889.43 567.91L889.427 567.911L888.65 568.542L850.419 521.436L794.721 515.268L794.831 514.275L794.84 514.276L794.84 514.275Z" fill="black"/>
<path fill-rule="evenodd" clip-rule="evenodd" d="M775.42 505.908L752.609 454.717L773.791 395.668L772.883 395.342L772.849 395.322L742.127 447.752L681.353 451.36L681.353 451.364L681.201 452.352L741.167 461.557L774.622 506.513L775.425 505.916L775.419 505.908L775.42 505.908Z" fill="black"/>
<path fill-rule="evenodd" clip-rule="evenodd" d="M785.624 629.908L808.435 578.717L787.253 519.668L788.161 519.342L788.195 519.322L818.917 571.752L879.691 575.36L879.691 575.364L879.843 576.352L819.877 585.557L786.422 630.513L785.619 629.916L785.625 629.908L785.624 629.908Z" fill="black"/>
<path fill-rule="evenodd" clip-rule="evenodd" d="M777.42 629.908L754.609 578.717L775.791 519.668L774.883 519.342L774.849 519.322L744.127 571.752L683.353 575.36L683.353 575.364L683.201 576.352L743.167 585.557L776.622 630.513L777.425 629.916L777.419 629.908L777.42 629.908Z" fill="black"/>
<path fill-rule="evenodd" clip-rule="evenodd" d="M435.741 445.275L380.039 439.106L339.774 391L339.034 391.619L339 391.638L368.733 444.635L341.151 498.91L341.154 498.911L341.931 499.542L380.163 452.436L435.86 446.268L435.75 445.275L435.741 445.276L435.741 445.275Z" fill="black"/>
<path fill-rule="evenodd" clip-rule="evenodd" d="M324.741 510.275L269.039 504.106L228.774 456L228.034 456.619L228 456.638L257.733 509.635L230.151 563.91L230.154 563.911L230.931 564.542L269.163 517.436L324.86 511.268L324.75 510.275L324.741 510.276L324.741 510.275Z" fill="black"/>
<path fill-rule="evenodd" clip-rule="evenodd" d="M349.119 510.275L404.822 504.106L445.086 456L445.826 456.619L445.86 456.638L416.127 509.635L443.71 563.91L443.706 563.911L442.93 564.542L404.698 517.436L349 511.268L349.11 510.275L349.119 510.276L349.119 510.275Z" fill="black"/>
<path fill-rule="evenodd" clip-rule="evenodd" d="M329.699 501.908L306.889 450.717L328.071 391.668L327.162 391.342L327.129 391.322L296.407 443.752L235.632 447.36L235.633 447.364L235.481 448.352L295.446 457.557L328.902 502.513L329.704 501.916L329.698 501.908L329.699 501.908Z" fill="black"/>
<path fill-rule="evenodd" clip-rule="evenodd" d="M339.903 625.908L362.714 574.717L341.532 515.668L342.44 515.342L342.474 515.322L373.196 567.752L433.97 571.36L433.97 571.364L434.122 572.352L374.156 581.557L340.701 626.513L339.899 625.916L339.904 625.908L339.903 625.908Z" fill="black"/>
<path fill-rule="evenodd" clip-rule="evenodd" d="M331.699 625.908L308.889 574.717L330.071 515.668L329.162 515.342L329.129 515.322L298.407 567.752L237.632 571.36L237.633 571.364L237.481 572.352L297.446 581.557L330.902 626.513L331.704 625.916L331.698 625.908L331.699 625.908Z" fill="black"/>
<path fill-rule="evenodd" clip-rule="evenodd" d="M1104.32 448.275L1048.62 442.106L1008.36 394L1007.62 394.619L1007.58 394.638L1037.31 447.635L1009.73 501.91L1009.74 501.911L1010.51 502.542L1048.74 455.436L1104.44 449.268L1104.33 448.275L1104.32 448.276L1104.32 448.275Z" fill="black"/>
<path fill-rule="evenodd" clip-rule="evenodd" d="M993.322 513.275L937.62 507.106L897.355 459L896.615 459.619L896.581 459.638L926.315 512.635L898.732 566.91L898.735 566.911L899.512 567.542L937.744 520.436L993.442 514.268L993.331 513.275L993.322 513.276L993.322 513.275Z" fill="black"/>
<path fill-rule="evenodd" clip-rule="evenodd" d="M1017.7 513.275L1073.4 507.106L1113.67 459L1114.41 459.619L1114.44 459.638L1084.71 512.635L1112.29 566.91L1112.29 566.911L1111.51 567.542L1073.28 520.436L1017.58 514.268L1017.69 513.275L1017.7 513.276L1017.7 513.275Z" fill="black"/>
<path fill-rule="evenodd" clip-rule="evenodd" d="M998.28 504.908L975.47 453.717L996.652 394.668L995.743 394.342L995.71 394.322L964.988 446.752L904.213 450.36L904.214 450.364L904.062 451.352L964.027 460.557L997.483 505.513L998.285 504.916L998.279 504.908L998.28 504.908Z" fill="black"/>
<path fill-rule="evenodd" clip-rule="evenodd" d="M1008.48 628.908L1031.29 577.717L1010.11 518.668L1011.02 518.342L1011.05 518.322L1041.78 570.752L1102.55 574.36L1102.55 574.364L1102.7 575.352L1042.74 584.557L1009.28 629.513L1008.48 628.916L1008.49 628.908L1008.48 628.908Z" fill="black"/>
<path fill-rule="evenodd" clip-rule="evenodd" d="M1000.28 628.908L977.47 577.717L998.652 518.668L997.743 518.342L997.71 518.322L966.988 570.752L906.213 574.36L906.214 574.364L906.062 575.352L966.027 584.557L999.483 629.513L1000.28 628.916L1000.28 628.908L1000.28 628.908Z" fill="black"/>
<path fill-rule="evenodd" clip-rule="evenodd" d="M658.601 446.275L602.899 440.106L562.634 392L561.894 392.619L561.86 392.638L591.594 445.635L564.011 499.91L564.015 499.911L564.791 500.542L603.023 453.436L658.721 447.268L658.611 446.275L658.601 446.276L658.601 446.275Z" fill="black"/>
<path fill-rule="evenodd" clip-rule="evenodd" d="M547.601 511.275L491.899 505.106L451.634 457L450.894 457.619L450.86 457.638L480.594 510.635L453.011 564.91L453.015 564.911L453.791 565.542L492.023 518.436L547.721 512.268L547.611 511.275L547.601 511.276L547.601 511.275Z" fill="black"/>
<path fill-rule="evenodd" clip-rule="evenodd" d="M571.98 511.275L627.682 505.106L667.947 457L668.687 457.619L668.721 457.638L638.987 510.635L666.57 564.91L666.566 564.911L665.79 565.542L627.558 518.436L571.86 512.268L571.97 511.275L571.98 511.276L571.98 511.275Z" fill="black"/>
<path fill-rule="evenodd" clip-rule="evenodd" d="M552.56 502.908L529.749 451.717L550.931 392.668L550.023 392.342L549.989 392.322L519.267 444.752L458.493 448.36L458.493 448.364L458.341 449.352L518.306 458.557L551.762 503.513L552.564 502.916L552.559 502.908L552.56 502.908Z" fill="black"/>
<path fill-rule="evenodd" clip-rule="evenodd" d="M562.764 626.908L585.574 575.717L564.392 516.668L565.301 516.342L565.334 516.322L596.056 568.752L656.831 572.36L656.83 572.364L656.982 573.352L597.017 582.557L563.561 627.513L562.759 626.916L562.765 626.908L562.764 626.908Z" fill="black"/>
<path fill-rule="evenodd" clip-rule="evenodd" d="M554.56 626.908L531.749 575.717L552.931 516.668L552.023 516.342L551.989 516.322L521.267 568.752L460.493 572.36L460.493 572.364L460.341 573.352L520.306 582.557L553.762 627.513L554.564 626.916L554.559 626.908L554.56 626.908Z" fill="black"/>
<path fill-rule="evenodd" clip-rule="evenodd" d="M212.881 448.275L157.178 442.106L116.914 394L116.174 394.619L116.14 394.638L145.873 447.635L118.29 501.91L118.294 501.911L119.07 502.542L157.302 455.436L213 449.268L212.89 448.275L212.881 448.276L212.881 448.275Z" fill="black"/>
<path fill-rule="evenodd" clip-rule="evenodd" d="M101.881 513.275L46.1784 507.106L5.91371 459L5.17372 459.619L5.13965 459.638L34.8731 512.635L7.29046 566.91L7.29402 566.911L8.07033 567.542L46.3021 520.436L102 514.268L101.89 513.275L101.881 513.276L101.881 513.275Z" fill="black"/>
<path fill-rule="evenodd" clip-rule="evenodd" d="M126.259 513.275L181.961 507.106L222.226 459L222.966 459.619L223 459.638L193.267 512.635L220.849 566.91L220.846 566.911L220.069 567.542L181.837 520.436L126.14 514.268L126.25 513.275L126.259 513.276L126.259 513.275Z" fill="black"/>
<path fill-rule="evenodd" clip-rule="evenodd" d="M106.839 504.908L84.0284 453.717L105.21 394.668L104.302 394.342L104.268 394.322L73.5464 446.752L12.7721 450.36L12.7723 450.364L12.6204 451.352L72.5858 460.557L106.041 505.513L106.844 504.916L106.838 504.908L106.839 504.908Z" fill="black"/>
<path fill-rule="evenodd" clip-rule="evenodd" d="M117.043 628.908L139.853 577.717L118.672 518.668L119.58 518.342L119.614 518.322L150.335 570.752L211.11 574.36L211.11 574.364L211.261 575.352L151.296 584.557L117.841 629.513L117.038 628.916L117.044 628.908L117.043 628.908Z" fill="black"/>
<path fill-rule="evenodd" clip-rule="evenodd" d="M108.839 628.908L86.0284 577.717L107.21 518.668L106.302 518.342L106.268 518.322L75.5464 570.752L14.7721 574.36L14.7723 574.364L14.6204 575.352L74.5858 584.557L108.041 629.513L108.844 628.916L108.838 628.908L108.839 628.908Z" fill="black"/>
<path fill-rule="evenodd" clip-rule="evenodd" d="M887.462 711.274L831.759 705.106L791.495 657L790.755 657.619L790.721 657.638L820.454 710.635L792.872 764.91L792.875 764.911L793.651 765.542L831.883 718.436L887.581 712.268L887.471 711.275L887.462 711.276L887.462 711.274Z" fill="black"/>
<path fill-rule="evenodd" clip-rule="evenodd" d="M776.462 776.274L720.759 770.106L680.495 722L679.755 722.619L679.721 722.638L709.454 775.635L681.872 829.91L681.875 829.911L682.651 830.542L720.883 783.436L776.581 777.268L776.471 776.275L776.462 776.276L776.462 776.274Z" fill="black"/>
<path fill-rule="evenodd" clip-rule="evenodd" d="M800.84 776.274L856.542 770.106L896.807 722L897.547 722.619L897.581 722.638L867.848 775.635L895.43 829.91L895.427 829.911L894.65 830.542L856.419 783.436L800.721 777.268L800.831 776.275L800.84 776.276L800.84 776.274Z" fill="black"/>
<path fill-rule="evenodd" clip-rule="evenodd" d="M781.42 767.908L758.609 716.717L779.791 657.668L778.883 657.342L778.849 657.323L748.127 709.752L687.353 713.36L687.353 713.364L687.201 714.352L747.167 723.557L780.622 768.513L781.425 767.916L781.419 767.908L781.42 767.908Z" fill="black"/>
<path fill-rule="evenodd" clip-rule="evenodd" d="M791.624 891.908L814.435 840.717L793.253 781.668L794.161 781.342L794.195 781.323L824.917 833.752L885.691 837.36L885.691 837.364L885.843 838.352L825.877 847.557L792.422 892.513L791.619 891.916L791.625 891.908L791.624 891.908Z" fill="black"/>
<path fill-rule="evenodd" clip-rule="evenodd" d="M783.42 891.908L760.609 840.717L781.791 781.668L780.883 781.342L780.849 781.323L750.127 833.752L689.353 837.36L689.353 837.364L689.201 838.352L749.167 847.557L782.622 892.513L783.425 891.916L783.419 891.908L783.42 891.908Z" fill="black"/>
<path fill-rule="evenodd" clip-rule="evenodd" d="M441.741 707.274L386.039 701.106L345.774 653L345.034 653.619L345 653.638L374.733 706.635L347.151 760.91L347.154 760.911L347.931 761.542L386.163 714.436L441.86 708.268L441.75 707.275L441.741 707.276L441.741 707.274Z" fill="black"/>
<path fill-rule="evenodd" clip-rule="evenodd" d="M330.741 772.274L275.039 766.106L234.774 718L234.034 718.619L234 718.638L263.733 771.635L236.151 825.91L236.154 825.911L236.931 826.542L275.163 779.436L330.86 773.268L330.75 772.275L330.741 772.276L330.741 772.274Z" fill="black"/>
<path fill-rule="evenodd" clip-rule="evenodd" d="M355.119 772.274L410.822 766.106L451.086 718L451.826 718.619L451.86 718.638L422.127 771.635L449.71 825.91L449.706 825.911L448.93 826.542L410.698 779.436L355 773.268L355.11 772.275L355.119 772.276L355.119 772.274Z" fill="black"/>
<path fill-rule="evenodd" clip-rule="evenodd" d="M335.699 763.908L312.889 712.717L334.071 653.668L333.162 653.342L333.129 653.323L302.407 705.752L241.632 709.36L241.633 709.364L241.481 710.352L301.446 719.557L334.902 764.513L335.704 763.916L335.698 763.908L335.699 763.908Z" fill="black"/>
<path fill-rule="evenodd" clip-rule="evenodd" d="M345.903 887.908L368.714 836.717L347.532 777.668L348.44 777.342L348.474 777.323L379.196 829.752L439.97 833.36L439.97 833.364L440.122 834.352L380.156 843.557L346.701 888.513L345.899 887.916L345.904 887.908L345.903 887.908Z" fill="black"/>
<path fill-rule="evenodd" clip-rule="evenodd" d="M337.699 887.908L314.889 836.717L336.071 777.668L335.162 777.342L335.129 777.323L304.407 829.752L243.632 833.36L243.633 833.364L243.481 834.352L303.446 843.557L336.902 888.513L337.704 887.916L337.698 887.908L337.699 887.908Z" fill="black"/>
<path fill-rule="evenodd" clip-rule="evenodd" d="M1110.32 710.274L1054.62 704.106L1014.36 656L1013.62 656.619L1013.58 656.638L1043.31 709.635L1015.73 763.91L1015.74 763.911L1016.51 764.542L1054.74 717.436L1110.44 711.268L1110.33 710.275L1110.32 710.276L1110.32 710.274Z" fill="black"/>
<path fill-rule="evenodd" clip-rule="evenodd" d="M999.322 775.274L943.62 769.106L903.355 721L902.615 721.619L902.581 721.638L932.315 774.635L904.732 828.91L904.735 828.911L905.512 829.542L943.744 782.436L999.442 776.268L999.331 775.275L999.322 775.276L999.322 775.274Z" fill="black"/>
<path fill-rule="evenodd" clip-rule="evenodd" d="M1023.7 775.274L1079.4 769.106L1119.67 721L1120.41 721.619L1120.44 721.638L1090.71 774.635L1118.29 828.91L1118.29 828.911L1117.51 829.542L1079.28 782.436L1023.58 776.268L1023.69 775.275L1023.7 775.276L1023.7 775.274Z" fill="black"/>
<path fill-rule="evenodd" clip-rule="evenodd" d="M1004.28 766.908L981.47 715.717L1002.65 656.668L1001.74 656.342L1001.71 656.323L970.988 708.752L910.213 712.36L910.214 712.364L910.062 713.352L970.027 722.557L1003.48 767.513L1004.28 766.916L1004.28 766.908L1004.28 766.908Z" fill="black"/>
<path fill-rule="evenodd" clip-rule="evenodd" d="M1014.48 890.908L1037.29 839.717L1016.11 780.668L1017.02 780.342L1017.05 780.323L1047.78 832.752L1108.55 836.36L1108.55 836.364L1108.7 837.352L1048.74 846.557L1015.28 891.513L1014.48 890.916L1014.49 890.908L1014.48 890.908Z" fill="black"/>
<path fill-rule="evenodd" clip-rule="evenodd" d="M1006.28 890.908L983.47 839.717L1004.65 780.668L1003.74 780.342L1003.71 780.323L972.988 832.752L912.213 836.36L912.214 836.364L912.062 837.352L972.027 846.557L1005.48 891.513L1006.28 890.916L1006.28 890.908L1006.28 890.908Z" fill="black"/>
<path fill-rule="evenodd" clip-rule="evenodd" d="M664.601 708.274L608.899 702.106L568.634 654L567.894 654.619L567.86 654.638L597.594 707.635L570.011 761.91L570.015 761.911L570.791 762.542L609.023 715.436L664.721 709.268L664.611 708.275L664.601 708.276L664.601 708.274Z" fill="black"/>
<path fill-rule="evenodd" clip-rule="evenodd" d="M553.601 773.274L497.899 767.106L457.634 719L456.894 719.619L456.86 719.638L486.594 772.635L459.011 826.91L459.015 826.911L459.791 827.542L498.023 780.436L553.721 774.268L553.611 773.275L553.601 773.276L553.601 773.274Z" fill="black"/>
<path fill-rule="evenodd" clip-rule="evenodd" d="M577.98 773.274L633.682 767.106L673.947 719L674.687 719.619L674.721 719.638L644.987 772.635L672.57 826.91L672.566 826.911L671.79 827.542L633.558 780.436L577.86 774.268L577.97 773.275L577.98 773.276L577.98 773.274Z" fill="black"/>
<path fill-rule="evenodd" clip-rule="evenodd" d="M558.56 764.908L535.749 713.717L556.931 654.668L556.023 654.342L555.989 654.323L525.267 706.752L464.493 710.36L464.493 710.364L464.341 711.352L524.306 720.557L557.762 765.513L558.564 764.916L558.559 764.908L558.56 764.908Z" fill="black"/>
<path fill-rule="evenodd" clip-rule="evenodd" d="M568.764 888.908L591.574 837.717L570.392 778.668L571.301 778.342L571.334 778.323L602.056 830.752L662.831 834.36L662.83 834.364L662.982 835.352L603.017 844.557L569.561 889.513L568.759 888.916L568.765 888.908L568.764 888.908Z" fill="black"/>
<path fill-rule="evenodd" clip-rule="evenodd" d="M560.56 888.908L537.749 837.717L558.931 778.668L558.023 778.342L557.989 778.323L527.267 830.752L466.493 834.36L466.493 834.364L466.341 835.352L526.306 844.557L559.762 889.513L560.564 888.916L560.559 888.908L560.56 888.908Z" fill="black"/>
<path fill-rule="evenodd" clip-rule="evenodd" d="M218.881 710.274L163.178 704.106L122.914 656L122.174 656.619L122.14 656.638L151.873 709.635L124.29 763.91L124.294 763.911L125.07 764.542L163.302 717.436L219 711.268L218.89 710.275L218.881 710.276L218.881 710.274Z" fill="black"/>
<path fill-rule="evenodd" clip-rule="evenodd" d="M107.881 775.274L52.1784 769.106L11.9137 721L11.1737 721.619L11.1396 721.638L40.8731 774.635L13.2905 828.91L13.294 828.911L14.0703 829.542L52.3021 782.436L108 776.268L107.89 775.275L107.881 775.276L107.881 775.274Z" fill="black"/>
<path fill-rule="evenodd" clip-rule="evenodd" d="M132.259 775.274L187.961 769.106L228.226 721L228.966 721.619L229 721.638L199.267 774.635L226.849 828.91L226.846 828.911L226.069 829.542L187.837 782.436L132.14 776.268L132.25 775.275L132.259 775.276L132.259 775.274Z" fill="black"/>
<path fill-rule="evenodd" clip-rule="evenodd" d="M112.839 766.908L90.0284 715.717L111.21 656.668L110.302 656.342L110.268 656.323L79.5464 708.752L18.7721 712.36L18.7723 712.364L18.6204 713.352L78.5858 722.557L112.041 767.513L112.844 766.916L112.838 766.908L112.839 766.908Z" fill="black"/>
<path fill-rule="evenodd" clip-rule="evenodd" d="M123.043 890.908L145.853 839.717L124.672 780.668L125.58 780.342L125.614 780.323L156.335 832.752L217.11 836.36L217.11 836.364L217.261 837.352L157.296 846.557L123.841 891.513L123.038 890.916L123.044 890.908L123.043 890.908Z" fill="black"/>
<path fill-rule="evenodd" clip-rule="evenodd" d="M114.839 890.908L92.0284 839.717L113.21 780.668L112.302 780.342L112.268 780.323L81.5464 832.752L20.7721 836.36L20.7723 836.364L20.6204 837.352L80.5858 846.557L114.041 891.513L114.844 890.916L114.838 890.908L114.839 890.908Z" fill="black"/>
<path fill-rule="evenodd" clip-rule="evenodd" d="M881.462 188.274L825.759 182.106L785.495 134L784.755 134.619L784.721 134.638L814.454 187.635L786.872 241.91L786.875 241.911L787.651 242.542L825.883 195.436L881.581 189.268L881.471 188.275L881.462 188.276L881.462 188.274Z" fill="black"/>
<path fill-rule="evenodd" clip-rule="evenodd" d="M770.462 253.274L714.759 247.106L674.495 199L673.755 199.619L673.721 199.638L703.454 252.635L675.872 306.91L675.875 306.911L676.651 307.542L714.883 260.436L770.581 254.268L770.471 253.275L770.462 253.276L770.462 253.274Z" fill="black"/>
<path fill-rule="evenodd" clip-rule="evenodd" d="M794.84 253.274L850.542 247.106L890.807 199L891.547 199.619L891.581 199.638L861.848 252.635L889.43 306.91L889.427 306.911L888.65 307.542L850.419 260.436L794.721 254.268L794.831 253.275L794.84 253.276L794.84 253.274Z" fill="black"/>
<path fill-rule="evenodd" clip-rule="evenodd" d="M775.42 244.908L752.609 193.717L773.791 134.668L772.883 134.342L772.849 134.322L742.127 186.752L681.353 190.36L681.353 190.364L681.201 191.352L741.167 200.557L774.622 245.513L775.425 244.916L775.419 244.908L775.42 244.908Z" fill="black"/>
<path fill-rule="evenodd" clip-rule="evenodd" d="M785.624 368.908L808.435 317.717L787.253 258.668L788.161 258.342L788.195 258.322L818.917 310.752L879.691 314.36L879.691 314.364L879.843 315.352L819.877 324.557L786.422 369.513L785.619 368.916L785.625 368.908L785.624 368.908Z" fill="black"/>
<path fill-rule="evenodd" clip-rule="evenodd" d="M777.42 368.908L754.609 317.717L775.791 258.668L774.883 258.342L774.849 258.322L744.127 310.752L683.353 314.36L683.353 314.364L683.201 315.352L743.167 324.557L776.622 369.513L777.425 368.916L777.419 368.908L777.42 368.908Z" fill="black"/>
<path fill-rule="evenodd" clip-rule="evenodd" d="M435.741 184.274L380.039 178.106L339.774 130L339.034 130.619L339 130.638L368.733 183.635L341.151 237.91L341.154 237.911L341.931 238.542L380.163 191.436L435.86 185.268L435.75 184.275L435.741 184.276L435.741 184.274Z" fill="black"/>
<path fill-rule="evenodd" clip-rule="evenodd" d="M324.741 249.274L269.039 243.106L228.774 195L228.034 195.619L228 195.638L257.733 248.635L230.151 302.91L230.154 302.911L230.931 303.542L269.163 256.436L324.86 250.268L324.75 249.275L324.741 249.276L324.741 249.274Z" fill="black"/>
<path fill-rule="evenodd" clip-rule="evenodd" d="M349.119 249.274L404.822 243.106L445.086 195L445.826 195.619L445.86 195.638L416.127 248.635L443.71 302.91L443.706 302.911L442.93 303.542L404.698 256.436L349 250.268L349.11 249.275L349.119 249.276L349.119 249.274Z" fill="black"/>
<path fill-rule="evenodd" clip-rule="evenodd" d="M329.699 240.908L306.889 189.717L328.071 130.668L327.162 130.342L327.129 130.322L296.407 182.752L235.632 186.36L235.633 186.364L235.481 187.352L295.446 196.557L328.902 241.513L329.704 240.916L329.698 240.908L329.699 240.908Z" fill="black"/>
<path fill-rule="evenodd" clip-rule="evenodd" d="M339.903 364.908L362.714 313.717L341.532 254.668L342.44 254.342L342.474 254.322L373.196 306.752L433.97 310.36L433.97 310.364L434.122 311.352L374.156 320.557L340.701 365.513L339.899 364.916L339.904 364.908L339.903 364.908Z" fill="black"/>
<path fill-rule="evenodd" clip-rule="evenodd" d="M331.699 364.908L308.889 313.717L330.071 254.668L329.162 254.342L329.129 254.322L298.407 306.752L237.632 310.36L237.633 310.364L237.481 311.352L297.446 320.557L330.902 365.513L331.704 364.916L331.698 364.908L331.699 364.908Z" fill="black"/>
<path fill-rule="evenodd" clip-rule="evenodd" d="M1104.32 187.274L1048.62 181.106L1008.36 133L1007.62 133.619L1007.58 133.638L1037.31 186.635L1009.73 240.91L1009.74 240.911L1010.51 241.542L1048.74 194.436L1104.44 188.268L1104.33 187.275L1104.32 187.276L1104.32 187.274Z" fill="black"/>
<path fill-rule="evenodd" clip-rule="evenodd" d="M993.322 252.274L937.62 246.106L897.355 198L896.615 198.619L896.581 198.638L926.315 251.635L898.732 305.91L898.735 305.911L899.512 306.542L937.744 259.436L993.442 253.268L993.331 252.275L993.322 252.276L993.322 252.274Z" fill="black"/>
<path fill-rule="evenodd" clip-rule="evenodd" d="M1017.7 252.274L1073.4 246.106L1113.67 198L1114.41 198.619L1114.44 198.638L1084.71 251.635L1112.29 305.91L1112.29 305.911L1111.51 306.542L1073.28 259.436L1017.58 253.268L1017.69 252.275L1017.7 252.276L1017.7 252.274Z" fill="black"/>
<path fill-rule="evenodd" clip-rule="evenodd" d="M998.28 243.908L975.47 192.717L996.652 133.668L995.743 133.342L995.71 133.322L964.988 185.752L904.213 189.36L904.214 189.364L904.062 190.352L964.027 199.557L997.483 244.513L998.285 243.916L998.279 243.908L998.28 243.908Z" fill="black"/>
<path fill-rule="evenodd" clip-rule="evenodd" d="M1008.48 367.908L1031.29 316.717L1010.11 257.668L1011.02 257.342L1011.05 257.322L1041.78 309.752L1102.55 313.36L1102.55 313.364L1102.7 314.352L1042.74 323.557L1009.28 368.513L1008.48 367.916L1008.49 367.908L1008.48 367.908Z" fill="black"/>
<path fill-rule="evenodd" clip-rule="evenodd" d="M1000.28 367.908L977.47 316.717L998.652 257.668L997.743 257.342L997.71 257.322L966.988 309.752L906.213 313.36L906.214 313.364L906.062 314.352L966.027 323.557L999.483 368.513L1000.28 367.916L1000.28 367.908L1000.28 367.908Z" fill="black"/>
<path fill-rule="evenodd" clip-rule="evenodd" d="M658.601 185.274L602.899 179.106L562.634 131L561.894 131.619L561.86 131.638L591.594 184.635L564.011 238.91L564.015 238.911L564.791 239.542L603.023 192.436L658.721 186.268L658.611 185.275L658.601 185.276L658.601 185.274Z" fill="black"/>
<path fill-rule="evenodd" clip-rule="evenodd" d="M547.601 250.274L491.899 244.106L451.634 196L450.894 196.619L450.86 196.638L480.594 249.635L453.011 303.91L453.015 303.911L453.791 304.542L492.023 257.436L547.721 251.268L547.611 250.275L547.601 250.276L547.601 250.274Z" fill="black"/>
<path fill-rule="evenodd" clip-rule="evenodd" d="M571.98 250.274L627.682 244.106L667.947 196L668.687 196.619L668.721 196.638L638.987 249.635L666.57 303.91L666.566 303.911L665.79 304.542L627.558 257.436L571.86 251.268L571.97 250.275L571.98 250.276L571.98 250.274Z" fill="black"/>
<path fill-rule="evenodd" clip-rule="evenodd" d="M552.56 241.908L529.749 190.717L550.931 131.668L550.023 131.342L549.989 131.322L519.267 183.752L458.493 187.36L458.493 187.364L458.341 188.352L518.306 197.557L551.762 242.513L552.564 241.916L552.559 241.908L552.56 241.908Z" fill="black"/>
<path fill-rule="evenodd" clip-rule="evenodd" d="M562.764 365.908L585.574 314.717L564.392 255.668L565.301 255.342L565.334 255.322L596.056 307.752L656.831 311.36L656.83 311.364L656.982 312.352L597.017 321.557L563.561 366.513L562.759 365.916L562.765 365.908L562.764 365.908Z" fill="black"/>
<path fill-rule="evenodd" clip-rule="evenodd" d="M554.56 365.908L531.749 314.717L552.931 255.668L552.023 255.342L551.989 255.322L521.267 307.752L460.493 311.36L460.493 311.364L460.341 312.352L520.306 321.557L553.762 366.513L554.564 365.916L554.559 365.908L554.56 365.908Z" fill="black"/>
<path fill-rule="evenodd" clip-rule="evenodd" d="M212.881 187.274L157.178 181.106L116.914 133L116.174 133.619L116.14 133.638L145.873 186.635L118.29 240.91L118.294 240.911L119.07 241.542L157.302 194.436L213 188.268L212.89 187.275L212.881 187.276L212.881 187.274Z" fill="black"/>
<path fill-rule="evenodd" clip-rule="evenodd" d="M101.881 252.274L46.1784 246.106L5.91371 198L5.17372 198.619L5.13965 198.638L34.8731 251.635L7.29046 305.91L7.29402 305.911L8.07033 306.542L46.3021 259.436L102 253.268L101.89 252.275L101.881 252.276L101.881 252.274Z" fill="black"/>
<path fill-rule="evenodd" clip-rule="evenodd" d="M126.259 252.274L181.961 246.106L222.226 198L222.966 198.619L223 198.638L193.267 251.635L220.849 305.91L220.846 305.911L220.069 306.542L181.837 259.436L126.14 253.268L126.25 252.275L126.259 252.276L126.259 252.274Z" fill="black"/>
<path fill-rule="evenodd" clip-rule="evenodd" d="M106.839 243.908L84.0284 192.717L105.21 133.668L104.302 133.342L104.268 133.322L73.5464 185.752L12.7721 189.36L12.7723 189.364L12.6204 190.352L72.5858 199.557L106.041 244.513L106.844 243.916L106.838 243.908L106.839 243.908Z" fill="black"/>
<path fill-rule="evenodd" clip-rule="evenodd" d="M117.043 367.908L139.853 316.717L118.672 257.668L119.58 257.342L119.614 257.322L150.335 309.752L211.11 313.36L211.11 313.364L211.261 314.352L151.296 323.557L117.841 368.513L117.038 367.916L117.044 367.908L117.043 367.908Z" fill="black"/>
<path fill-rule="evenodd" clip-rule="evenodd" d="M108.839 367.908L86.0284 316.717L107.21 257.668L106.302 257.342L106.268 257.322L75.5464 309.752L14.7721 313.36L14.7723 313.364L14.6204 314.352L74.5858 323.557L108.041 368.513L108.844 367.916L108.838 367.908L108.839 367.908Z" fill="black"/>
<path fill-rule="evenodd" clip-rule="evenodd" d="M1431.74 377.275L1376.04 371.106L1335.77 323L1335.03 323.619L1335 323.638L1364.73 376.635L1337.15 430.91L1337.15 430.911L1337.93 431.542L1376.16 384.436L1431.86 378.268L1431.75 377.275L1431.74 377.276L1431.74 377.275Z" fill="black"/>
<path fill-rule="evenodd" clip-rule="evenodd" d="M1233.26 380.275L1288.96 374.106L1329.23 326L1329.97 326.619L1330 326.638L1300.27 379.635L1327.85 433.91L1327.85 433.911L1327.07 434.542L1288.84 387.436L1233.14 381.268L1233.25 380.275L1233.26 380.276L1233.26 380.275Z" fill="black"/>
<path fill-rule="evenodd" clip-rule="evenodd" d="M1210.74 377.275L1155.04 371.106L1114.77 323L1114.03 323.619L1114 323.638L1143.73 376.635L1116.15 430.91L1116.15 430.911L1116.93 431.542L1155.16 384.436L1210.86 378.268L1210.75 377.275L1210.74 377.276L1210.74 377.275Z" fill="black"/>
<path fill-rule="evenodd" clip-rule="evenodd" d="M1432.88 638.275L1377.18 632.106L1336.91 584L1336.17 584.619L1336.14 584.638L1365.87 637.635L1338.29 691.91L1338.29 691.911L1339.07 692.542L1377.3 645.436L1433 639.268L1432.89 638.275L1432.88 638.276L1432.88 638.275Z" fill="black"/>
<path fill-rule="evenodd" clip-rule="evenodd" d="M1234.4 641.275L1290.1 635.106L1330.37 587L1331.11 587.619L1331.14 587.638L1301.41 640.635L1328.99 694.91L1328.99 694.911L1328.21 695.542L1289.98 648.436L1234.28 642.268L1234.39 641.275L1234.4 641.276L1234.4 641.275Z" fill="black"/>
<path fill-rule="evenodd" clip-rule="evenodd" d="M1211.88 638.275L1156.18 632.106L1115.91 584L1115.17 584.619L1115.14 584.638L1144.87 637.635L1117.29 691.91L1117.29 691.911L1118.07 692.542L1156.3 645.436L1212 639.268L1211.89 638.275L1211.88 638.276L1211.88 638.275Z" fill="black"/>
<path fill-rule="evenodd" clip-rule="evenodd" d="M1438.74 510.275L1383.04 504.106L1342.77 456L1342.03 456.619L1342 456.638L1371.73 509.635L1344.15 563.91L1344.15 563.911L1344.93 564.542L1383.16 517.436L1438.86 511.268L1438.75 510.275L1438.74 510.276L1438.74 510.275Z" fill="black"/>
<path fill-rule="evenodd" clip-rule="evenodd" d="M1443.7 501.908L1420.89 450.717L1442.07 391.668L1441.16 391.342L1441.13 391.322L1410.41 443.752L1349.63 447.36L1349.63 447.364L1349.48 448.352L1409.45 457.557L1442.9 502.513L1443.7 501.916L1443.7 501.908L1443.7 501.908Z" fill="black"/>
<path fill-rule="evenodd" clip-rule="evenodd" d="M1445.7 625.908L1422.89 574.717L1444.07 515.668L1443.16 515.342L1443.13 515.322L1412.41 567.752L1351.63 571.36L1351.63 571.364L1351.48 572.352L1411.45 581.557L1444.9 626.513L1445.7 625.916L1445.7 625.908L1445.7 625.908Z" fill="black"/>
<path fill-rule="evenodd" clip-rule="evenodd" d="M1326.88 448.275L1271.18 442.106L1230.91 394L1230.17 394.619L1230.14 394.638L1259.87 447.635L1232.29 501.91L1232.29 501.911L1233.07 502.542L1271.3 455.436L1327 449.268L1326.89 448.275L1326.88 448.276L1326.88 448.275Z" fill="black"/>
<path fill-rule="evenodd" clip-rule="evenodd" d="M1215.88 513.275L1160.18 507.106L1119.91 459L1119.17 459.619L1119.14 459.638L1148.87 512.635L1121.29 566.91L1121.29 566.911L1122.07 567.542L1160.3 520.436L1216 514.268L1215.89 513.275L1215.88 513.276L1215.88 513.275Z" fill="black"/>
<path fill-rule="evenodd" clip-rule="evenodd" d="M1240.26 513.275L1295.96 507.106L1336.23 459L1336.97 459.619L1337 459.638L1307.27 512.635L1334.85 566.91L1334.85 566.911L1334.07 567.542L1295.84 520.436L1240.14 514.268L1240.25 513.275L1240.26 513.276L1240.26 513.275Z" fill="black"/>
<path fill-rule="evenodd" clip-rule="evenodd" d="M1220.84 504.908L1198.03 453.717L1219.21 394.668L1218.3 394.342L1218.27 394.322L1187.55 446.752L1126.77 450.36L1126.77 450.364L1126.62 451.352L1186.59 460.557L1220.04 505.513L1220.84 504.916L1220.84 504.908L1220.84 504.908Z" fill="black"/>
<path fill-rule="evenodd" clip-rule="evenodd" d="M1231.04 628.908L1253.85 577.717L1232.67 518.668L1233.58 518.342L1233.61 518.322L1264.34 570.752L1325.11 574.36L1325.11 574.364L1325.26 575.352L1265.3 584.557L1231.84 629.513L1231.04 628.916L1231.04 628.908L1231.04 628.908Z" fill="black"/>
<path fill-rule="evenodd" clip-rule="evenodd" d="M1222.84 628.908L1200.03 577.717L1221.21 518.668L1220.3 518.342L1220.27 518.322L1189.55 570.752L1128.77 574.36L1128.77 574.364L1128.62 575.352L1188.59 584.557L1222.04 629.513L1222.84 628.916L1222.84 628.908L1222.84 628.908Z" fill="black"/>
<path fill-rule="evenodd" clip-rule="evenodd" d="M1444.74 772.274L1389.04 766.106L1348.77 718L1348.03 718.619L1348 718.638L1377.73 771.635L1350.15 825.91L1350.15 825.911L1350.93 826.542L1389.16 779.436L1444.86 773.268L1444.75 772.275L1444.74 772.276L1444.74 772.274Z" fill="black"/>
<path fill-rule="evenodd" clip-rule="evenodd" d="M1449.7 763.908L1426.89 712.717L1448.07 653.668L1447.16 653.342L1447.13 653.323L1416.41 705.752L1355.63 709.36L1355.63 709.364L1355.48 710.352L1415.45 719.557L1448.9 764.513L1449.7 763.916L1449.7 763.908L1449.7 763.908Z" fill="black"/>
<path fill-rule="evenodd" clip-rule="evenodd" d="M1451.7 887.908L1428.89 836.717L1450.07 777.668L1449.16 777.342L1449.13 777.323L1418.41 829.752L1357.63 833.36L1357.63 833.364L1357.48 834.352L1417.45 843.557L1450.9 888.513L1451.7 887.916L1451.7 887.908L1451.7 887.908Z" fill="black"/>
<path fill-rule="evenodd" clip-rule="evenodd" d="M1332.88 710.274L1277.18 704.106L1236.91 656L1236.17 656.619L1236.14 656.638L1265.87 709.635L1238.29 763.91L1238.29 763.911L1239.07 764.542L1277.3 717.436L1333 711.268L1332.89 710.275L1332.88 710.276L1332.88 710.274Z" fill="black"/>
<path fill-rule="evenodd" clip-rule="evenodd" d="M1221.88 775.274L1166.18 769.106L1125.91 721L1125.17 721.619L1125.14 721.638L1154.87 774.635L1127.29 828.91L1127.29 828.911L1128.07 829.542L1166.3 782.436L1222 776.268L1221.89 775.275L1221.88 775.276L1221.88 775.274Z" fill="black"/>
<path fill-rule="evenodd" clip-rule="evenodd" d="M1246.26 775.274L1301.96 769.106L1342.23 721L1342.97 721.619L1343 721.638L1313.27 774.635L1340.85 828.91L1340.85 828.911L1340.07 829.542L1301.84 782.436L1246.14 776.268L1246.25 775.275L1246.26 775.276L1246.26 775.274Z" fill="black"/>
<path fill-rule="evenodd" clip-rule="evenodd" d="M1226.84 766.908L1204.03 715.717L1225.21 656.668L1224.3 656.342L1224.27 656.323L1193.55 708.752L1132.77 712.36L1132.77 712.364L1132.62 713.352L1192.59 722.557L1226.04 767.513L1226.84 766.916L1226.84 766.908L1226.84 766.908Z" fill="black"/>
<path fill-rule="evenodd" clip-rule="evenodd" d="M1237.04 890.908L1259.85 839.717L1238.67 780.668L1239.58 780.342L1239.61 780.323L1270.34 832.752L1331.11 836.36L1331.11 836.364L1331.26 837.352L1271.3 846.557L1237.84 891.513L1237.04 890.916L1237.04 890.908L1237.04 890.908Z" fill="black"/>
<path fill-rule="evenodd" clip-rule="evenodd" d="M1228.84 890.908L1206.03 839.717L1227.21 780.668L1226.3 780.342L1226.27 780.323L1195.55 832.752L1134.77 836.36L1134.77 836.364L1134.62 837.352L1194.59 846.557L1228.04 891.513L1228.84 890.916L1228.84 890.908L1228.84 890.908Z" fill="black"/>
<path fill-rule="evenodd" clip-rule="evenodd" d="M1438.74 249.274L1383.04 243.106L1342.77 195L1342.03 195.619L1342 195.638L1371.73 248.635L1344.15 302.91L1344.15 302.911L1344.93 303.542L1383.16 256.436L1438.86 250.268L1438.75 249.275L1438.74 249.276L1438.74 249.274Z" fill="black"/>
<path fill-rule="evenodd" clip-rule="evenodd" d="M1443.7 240.908L1420.89 189.717L1442.07 130.668L1441.16 130.342L1441.13 130.322L1410.41 182.752L1349.63 186.36L1349.63 186.364L1349.48 187.352L1409.45 196.557L1442.9 241.513L1443.7 240.916L1443.7 240.908L1443.7 240.908Z" fill="black"/>
<path fill-rule="evenodd" clip-rule="evenodd" d="M1445.7 364.908L1422.89 313.717L1444.07 254.668L1443.16 254.342L1443.13 254.322L1412.41 306.752L1351.63 310.36L1351.63 310.364L1351.48 311.352L1411.45 320.557L1444.9 365.513L1445.7 364.916L1445.7 364.908L1445.7 364.908Z" fill="black"/>
<path fill-rule="evenodd" clip-rule="evenodd" d="M1326.88 187.274L1271.18 181.106L1230.91 133L1230.17 133.619L1230.14 133.638L1259.87 186.635L1232.29 240.91L1232.29 240.911L1233.07 241.542L1271.3 194.436L1327 188.268L1326.89 187.275L1326.88 187.276L1326.88 187.274Z" fill="black"/>
<path fill-rule="evenodd" clip-rule="evenodd" d="M1215.88 252.274L1160.18 246.106L1119.91 198L1119.17 198.619L1119.14 198.638L1148.87 251.635L1121.29 305.91L1121.29 305.911L1122.07 306.542L1160.3 259.436L1216 253.268L1215.89 252.275L1215.88 252.276L1215.88 252.274Z" fill="black"/>
<path fill-rule="evenodd" clip-rule="evenodd" d="M1240.26 252.274L1295.96 246.106L1336.23 198L1336.97 198.619L1337 198.638L1307.27 251.635L1334.85 305.91L1334.85 305.911L1334.07 306.542L1295.84 259.436L1240.14 253.268L1240.25 252.275L1240.26 252.276L1240.26 252.274Z" fill="black"/>
<path fill-rule="evenodd" clip-rule="evenodd" d="M1220.84 243.908L1198.03 192.717L1219.21 133.668L1218.3 133.342L1218.27 133.322L1187.55 185.752L1126.77 189.36L1126.77 189.364L1126.62 190.352L1186.59 199.557L1220.04 244.513L1220.84 243.916L1220.84 243.908L1220.84 243.908Z" fill="black"/>
<path fill-rule="evenodd" clip-rule="evenodd" d="M1231.04 367.908L1253.85 316.717L1232.67 257.668L1233.58 257.342L1233.61 257.322L1264.34 309.752L1325.11 313.36L1325.11 313.364L1325.26 314.352L1265.3 323.557L1231.84 368.513L1231.04 367.916L1231.04 367.908L1231.04 367.908Z" fill="black"/>
<path fill-rule="evenodd" clip-rule="evenodd" d="M1222.84 367.908L1200.03 316.717L1221.21 257.668L1220.3 257.342L1220.27 257.322L1189.55 309.752L1128.77 313.36L1128.77 313.364L1128.62 314.352L1188.59 323.557L1222.04 368.513L1222.84 367.916L1222.84 367.908L1222.84 367.908Z" fill="black"/>
<path fill-rule="evenodd" clip-rule="evenodd" d="M422.881 -76.7254L367.178 -82.8939L326.914 -131L326.174 -130.381L326.14 -130.361L355.873 -77.3649L328.29 -23.0903L328.294 -23.0886L329.07 -22.4582L367.302 -69.5635L423 -75.7314L422.89 -76.7254L422.881 -76.7243L422.881 -76.7254Z" fill="black"/>
<path fill-rule="evenodd" clip-rule="evenodd" d="M224.399 -73.7254L280.101 -79.8939L320.366 -128L321.106 -127.381L321.14 -127.361L291.406 -74.3649L318.989 -20.0903L318.985 -20.0886L318.209 -19.4582L279.977 -66.5635L224.279 -72.7314L224.389 -73.7254L224.399 -73.7243L224.399 -73.7254Z" fill="black"/>
<path fill-rule="evenodd" clip-rule="evenodd" d="M201.881 -76.7254L146.178 -82.8939L105.914 -131L105.174 -130.381L105.14 -130.361L134.873 -77.3649L107.29 -23.0903L107.294 -23.0886L108.07 -22.4582L146.302 -69.5635L202 -75.7314L201.89 -76.7254L201.881 -76.7243L201.881 -76.7254Z" fill="black"/>
<path fill-rule="evenodd" clip-rule="evenodd" d="M434.741 57.2745L379.039 51.1061L338.774 3.00006L338.034 3.61945L338 3.63855L367.733 56.6351L340.151 110.91L340.154 110.911L340.931 111.542L379.163 64.4365L434.86 58.2686L434.75 57.2747L434.741 57.2757L434.741 57.2745Z" fill="black"/>
<path fill-rule="evenodd" clip-rule="evenodd" d="M439.699 48.9076L416.889 -2.28302L438.071 -61.3318L437.162 -61.6577L437.129 -61.6774L406.407 -9.24774L345.632 -5.64032L345.633 -5.63635L345.481 -4.64795L405.446 4.5567L438.902 49.5127L439.704 48.9156L439.698 48.9081L439.699 48.9076Z" fill="black"/>
<path fill-rule="evenodd" clip-rule="evenodd" d="M441.699 172.908L418.889 121.717L440.071 62.6682L439.162 62.3423L439.129 62.3226L408.407 114.752L347.632 118.36L347.633 118.364L347.481 119.352L407.446 128.557L440.902 173.513L441.704 172.916L441.698 172.908L441.699 172.908Z" fill="black"/>
<path fill-rule="evenodd" clip-rule="evenodd" d="M322.881 -4.72546L267.178 -10.8939L226.914 -58.9999L226.174 -58.3806L226.14 -58.3615L255.873 -5.36493L228.29 48.9097L228.294 48.9114L229.07 49.5418L267.302 2.43652L323 -3.73145L322.89 -4.72534L322.881 -4.7243L322.881 -4.72546Z" fill="black"/>
<path fill-rule="evenodd" clip-rule="evenodd" d="M211.881 60.2745L156.178 54.1061L115.914 6.00006L115.174 6.61945L115.14 6.63855L144.873 59.6351L117.29 113.91L117.294 113.911L118.07 114.542L156.302 67.4365L212 61.2686L211.89 60.2747L211.881 60.2757L211.881 60.2745Z" fill="black"/>
<path fill-rule="evenodd" clip-rule="evenodd" d="M236.259 60.2745L291.961 54.1061L332.226 6.00006L332.966 6.61945L333 6.63855L303.267 59.6351L330.849 113.91L330.846 113.911L330.069 114.542L291.837 67.4365L236.14 61.2686L236.25 60.2747L236.259 60.2757L236.259 60.2745Z" fill="black"/>
<path fill-rule="evenodd" clip-rule="evenodd" d="M216.839 51.9076L194.028 0.71698L215.21 -58.3318L214.302 -58.6577L214.268 -58.6774L183.546 -6.24774L122.772 -2.64032L122.772 -2.63635L122.62 -1.64795L182.586 7.5567L216.041 52.5127L216.844 51.9156L216.838 51.9081L216.839 51.9076Z" fill="black"/>
<path fill-rule="evenodd" clip-rule="evenodd" d="M227.043 175.908L249.853 124.717L228.672 65.6682L229.58 65.3423L229.614 65.3226L260.335 117.752L321.11 121.36L321.11 121.364L321.261 122.352L261.296 131.557L227.841 176.513L227.038 175.916L227.044 175.908L227.043 175.908Z" fill="black"/>
<path fill-rule="evenodd" clip-rule="evenodd" d="M218.839 175.908L196.028 124.717L217.21 65.6682L216.302 65.3423L216.268 65.3226L185.546 117.752L124.772 121.36L124.772 121.364L124.62 122.352L184.586 131.557L218.041 176.513L218.844 175.916L218.838 175.908L218.839 175.908Z" fill="black"/>
<path fill-rule="evenodd" clip-rule="evenodd" d="M-14.8605 -61.7618L-70.5628 -55.5934L-110.827 -7.48734L-111.567 -8.1067L-111.602 -8.12582L-81.8681 -61.1224L-109.451 -115.397L-109.447 -115.399L-108.671 -116.029L-70.4391 -68.9238L-14.7411 -62.7558L-14.8512 -61.7619L-14.8606 -61.763L-14.8605 -61.7618Z" fill="black"/>
<path fill-rule="evenodd" clip-rule="evenodd" d="M7.65734 -58.7618L63.3597 -52.5934L103.624 -4.48734L104.364 -5.1067L104.398 -5.12582L74.665 -58.1224L102.248 -112.397L102.244 -112.399L101.468 -113.029L63.2359 -65.9238L7.53798 -59.7558L7.64804 -58.7619L7.65746 -58.763L7.65734 -58.7618Z" fill="black"/>
<path fill-rule="evenodd" clip-rule="evenodd" d="M-108.482 -129.762L-52.78 -123.593L-12.5153 -75.4873L-11.7753 -76.1067L-11.7412 -76.1258L-41.4747 -129.122L-13.892 -183.397L-13.8956 -183.399L-14.6719 -184.029L-52.9037 -136.924L-108.602 -130.756L-108.492 -129.762L-108.482 -129.763L-108.482 -129.762Z" fill="black"/>
<path fill-rule="evenodd" clip-rule="evenodd" d="M-2.44044 -186.395L20.37 -135.204L-0.811859 -76.1554L0.0964584 -75.8296L0.130157 -75.8098L30.8521 -128.24L91.6264 -131.847L91.6261 -131.851L91.7781 -132.839L31.8127 -142.044L-1.64284 -187L-2.44508 -186.403L-2.43941 -186.395L-2.44044 -186.395Z" fill="black"/>
<path fill-rule="evenodd" clip-rule="evenodd" d="M-108.482 131.238L-52.78 137.407L-12.5153 185.513L-11.7753 184.893L-11.7412 184.874L-41.4747 131.878L-13.892 77.6031L-13.8956 77.6013L-14.6719 76.9709L-52.9037 124.076L-108.602 130.244L-108.492 131.238L-108.482 131.237L-108.482 131.238Z" fill="black"/>
<path fill-rule="evenodd" clip-rule="evenodd" d="M2.51769 66.2382L58.22 72.4066L98.4847 120.513L99.2247 119.893L99.2588 119.874L69.5253 66.8776L97.108 12.6031L97.1044 12.6013L96.3281 11.9709L58.0963 59.0762L2.39833 65.2442L2.50839 66.2381L2.51781 66.237L2.51769 66.2382Z" fill="black"/>
<path fill-rule="evenodd" clip-rule="evenodd" d="M-21.8605 66.2382L-77.5628 72.4066L-117.827 120.513L-118.567 119.893L-118.602 119.874L-88.8681 66.8776L-116.451 12.6031L-116.447 12.6013L-115.671 11.9709L-77.4391 59.0762L-21.7411 65.2442L-21.8512 66.2381L-21.8606 66.237L-21.8605 66.2382Z" fill="black"/>
<path fill-rule="evenodd" clip-rule="evenodd" d="M-2.44044 74.6051L20.37 125.796L-0.811859 184.845L0.0964584 185.17L0.130157 185.19L30.8521 132.76L91.6264 129.153L91.6261 129.149L91.7781 128.161L31.8127 118.956L-1.64284 74.0001L-2.44508 74.5971L-2.43941 74.6047L-2.44044 74.6051Z" fill="black"/>
<path fill-rule="evenodd" clip-rule="evenodd" d="M-12.6445 -49.3949L-35.455 1.79576L-14.2731 60.8446L-15.1814 61.1704L-15.2151 61.1902L-45.937 8.76045L-106.711 5.15306L-106.711 5.14908L-106.863 4.16069L-46.8976 -5.04401L-13.4421 -49.9999L-12.6399 -49.4029L-12.6455 -49.3953L-12.6445 -49.3949Z" fill="black"/>
<path fill-rule="evenodd" clip-rule="evenodd" d="M-4.44044 -49.3949L18.37 1.79576L-2.81186 60.8446L-1.90354 61.1704L-1.86984 61.1902L28.8521 8.76045L89.6264 5.15306L89.6261 5.14908L89.7781 4.16069L29.8127 -5.04401L-3.64284 -49.9999L-4.44508 -49.4029L-4.43941 -49.3953L-4.44044 -49.3949Z" fill="black"/>
<path fill-rule="evenodd" clip-rule="evenodd" d="M464.657 -70.7618L520.36 -64.5934L560.624 -16.4873L561.364 -17.1067L561.398 -17.1258L531.665 -70.1224L559.248 -124.397L559.244 -124.399L558.468 -125.029L520.236 -77.9238L464.538 -71.7558L464.648 -70.7619L464.657 -70.763L464.657 -70.7618Z" fill="black"/>
<path fill-rule="evenodd" clip-rule="evenodd" d="M663.14 -73.7618L607.437 -67.5934L567.173 -19.4873L566.433 -20.1067L566.398 -20.1258L596.132 -73.1224L568.549 -127.397L568.553 -127.399L569.329 -128.029L607.561 -80.9238L663.259 -74.7558L663.149 -73.7619L663.139 -73.763L663.14 -73.7618Z" fill="black"/>
<path fill-rule="evenodd" clip-rule="evenodd" d="M685.657 -70.7618L741.36 -64.5934L781.624 -16.4873L782.364 -17.1067L782.398 -17.1258L752.665 -70.1224L780.248 -124.397L780.244 -124.399L779.468 -125.029L741.236 -77.9238L685.538 -71.7558L685.648 -70.7619L685.657 -70.763L685.657 -70.7618Z" fill="black"/>
<path fill-rule="evenodd" clip-rule="evenodd" d="M457.657 57.2382L513.36 63.4066L553.624 111.513L554.364 110.893L554.398 110.874L524.665 57.8776L552.248 3.60307L552.244 3.60126L551.468 2.97092L513.236 50.0762L457.538 56.2442L457.648 57.2381L457.657 57.237L457.657 57.2382Z" fill="black"/>
<path fill-rule="evenodd" clip-rule="evenodd" d="M452.699 65.6051L475.51 116.796L454.328 175.845L455.236 176.17L455.27 176.19L485.992 123.76L546.766 120.153L546.766 120.149L546.918 119.161L486.952 109.956L453.497 65.0001L452.695 65.5971L452.7 65.6047L452.699 65.6051Z" fill="black"/>
<path fill-rule="evenodd" clip-rule="evenodd" d="M450.699 -58.3949L473.51 -7.20424L452.328 51.8446L453.236 52.1704L453.27 52.1902L483.992 -0.239548L544.766 -3.84694L544.766 -3.85092L544.918 -4.83931L484.952 -14.044L451.497 -58.9999L450.695 -58.4029L450.7 -58.3953L450.699 -58.3949Z" fill="black"/>
<path fill-rule="evenodd" clip-rule="evenodd" d="M569.518 119.238L625.22 125.407L665.485 173.513L666.225 172.893L666.259 172.874L636.525 119.878L664.108 65.6031L664.104 65.6013L663.328 64.9709L625.096 112.076L569.398 118.244L569.508 119.238L569.518 119.237L569.518 119.238Z" fill="black"/>
<path fill-rule="evenodd" clip-rule="evenodd" d="M680.518 54.2382L736.22 60.4066L776.485 108.513L777.225 107.893L777.259 107.874L747.525 54.8776L775.108 0.603073L775.104 0.601257L774.328 -0.0290833L736.096 47.0762L680.398 53.2442L680.508 54.2381L680.518 54.237L680.518 54.2382Z" fill="black"/>
<path fill-rule="evenodd" clip-rule="evenodd" d="M656.14 54.2382L600.437 60.4066L560.173 108.513L559.433 107.893L559.398 107.874L589.132 54.8776L561.549 0.603073L561.553 0.601257L562.329 -0.0290833L600.561 47.0762L656.259 53.2442L656.149 54.2381L656.139 54.237L656.14 54.2382Z" fill="black"/>
<path fill-rule="evenodd" clip-rule="evenodd" d="M675.56 62.6051L698.37 113.796L677.188 172.845L678.096 173.17L678.13 173.19L708.852 120.76L769.626 117.153L769.626 117.149L769.778 116.161L709.813 106.956L676.357 62.0001L675.555 62.5971L675.561 62.6047L675.56 62.6051Z" fill="black"/>
<path fill-rule="evenodd" clip-rule="evenodd" d="M665.355 -61.3949L642.545 -10.2042L663.727 48.8446L662.819 49.1704L662.785 49.1902L632.063 -3.23955L571.289 -6.84694L571.289 -6.85092L571.137 -7.83931L631.102 -17.044L664.558 -61.9999L665.36 -61.4029L665.354 -61.3953L665.355 -61.3949Z" fill="black"/>
<path fill-rule="evenodd" clip-rule="evenodd" d="M673.56 -61.3949L696.37 -10.2042L675.188 48.8446L676.096 49.1704L676.13 49.1902L706.852 -3.23955L767.626 -6.84694L767.626 -6.85092L767.778 -7.83931L707.813 -17.044L674.357 -61.9999L673.555 -61.4029L673.561 -61.3953L673.56 -61.3949Z" fill="black"/>
<path fill-rule="evenodd" clip-rule="evenodd" d="M1100.88 -76.7254L1045.18 -82.8939L1004.91 -131L1004.17 -130.381L1004.14 -130.361L1033.87 -77.3649L1006.29 -23.0903L1006.29 -23.0886L1007.07 -22.4582L1045.3 -69.5635L1101 -75.7314L1100.89 -76.7254L1100.88 -76.7243L1100.88 -76.7254Z" fill="black"/>
<path fill-rule="evenodd" clip-rule="evenodd" d="M902.399 -73.7254L958.101 -79.8939L998.366 -128L999.106 -127.381L999.14 -127.361L969.406 -74.3649L996.989 -20.0903L996.985 -20.0886L996.209 -19.4582L957.977 -66.5635L902.279 -72.7314L902.389 -73.7254L902.399 -73.7243L902.399 -73.7254Z" fill="black"/>
<path fill-rule="evenodd" clip-rule="evenodd" d="M879.881 -76.7254L824.178 -82.8939L783.914 -131L783.174 -130.381L783.14 -130.361L812.873 -77.3649L785.29 -23.0903L785.294 -23.0886L786.07 -22.4582L824.302 -69.5635L880 -75.7314L879.89 -76.7254L879.881 -76.7243L879.881 -76.7254Z" fill="black"/>
<path fill-rule="evenodd" clip-rule="evenodd" d="M1112.74 57.2745L1057.04 51.1061L1016.77 3.00006L1016.03 3.61945L1016 3.63855L1045.73 56.6351L1018.15 110.91L1018.15 110.911L1018.93 111.542L1057.16 64.4365L1112.86 58.2686L1112.75 57.2747L1112.74 57.2757L1112.74 57.2745Z" fill="black"/>
<path fill-rule="evenodd" clip-rule="evenodd" d="M1117.7 48.9076L1094.89 -2.28302L1116.07 -61.3318L1115.16 -61.6577L1115.13 -61.6774L1084.41 -9.24774L1023.63 -5.64032L1023.63 -5.63635L1023.48 -4.64795L1083.45 4.5567L1116.9 49.5127L1117.7 48.9156L1117.7 48.9081L1117.7 48.9076Z" fill="black"/>
<path fill-rule="evenodd" clip-rule="evenodd" d="M1119.7 172.908L1096.89 121.717L1118.07 62.6682L1117.16 62.3423L1117.13 62.3226L1086.41 114.752L1025.63 118.36L1025.63 118.364L1025.48 119.352L1085.45 128.557L1118.9 173.513L1119.7 172.916L1119.7 172.908L1119.7 172.908Z" fill="black"/>
<path fill-rule="evenodd" clip-rule="evenodd" d="M1000.88 -4.72546L945.178 -10.8939L904.914 -58.9999L904.174 -58.3806L904.14 -58.3615L933.873 -5.36493L906.29 48.9097L906.294 48.9114L907.07 49.5418L945.302 2.43652L1001 -3.73145L1000.89 -4.72534L1000.88 -4.7243L1000.88 -4.72546Z" fill="black"/>
<path fill-rule="evenodd" clip-rule="evenodd" d="M889.881 60.2745L834.178 54.1061L793.914 6.00006L793.174 6.61945L793.14 6.63855L822.873 59.6351L795.29 113.91L795.294 113.911L796.07 114.542L834.302 67.4365L890 61.2686L889.89 60.2747L889.881 60.2757L889.881 60.2745Z" fill="black"/>
<path fill-rule="evenodd" clip-rule="evenodd" d="M914.259 60.2745L969.961 54.1061L1010.23 6.00006L1010.97 6.61945L1011 6.63855L981.267 59.6351L1008.85 113.91L1008.85 113.911L1008.07 114.542L969.837 67.4365L914.14 61.2686L914.25 60.2747L914.259 60.2757L914.259 60.2745Z" fill="black"/>
<path fill-rule="evenodd" clip-rule="evenodd" d="M894.839 51.9076L872.028 0.71698L893.21 -58.3318L892.302 -58.6577L892.268 -58.6774L861.546 -6.24774L800.772 -2.64032L800.772 -2.63635L800.62 -1.64795L860.586 7.5567L894.041 52.5127L894.844 51.9156L894.838 51.9081L894.839 51.9076Z" fill="black"/>
<path fill-rule="evenodd" clip-rule="evenodd" d="M905.043 175.908L927.853 124.717L906.672 65.6682L907.58 65.3423L907.614 65.3226L938.335 117.752L999.11 121.36L999.11 121.364L999.261 122.352L939.296 131.557L905.841 176.513L905.038 175.916L905.044 175.908L905.043 175.908Z" fill="black"/>
<path fill-rule="evenodd" clip-rule="evenodd" d="M896.839 175.908L874.028 124.717L895.21 65.6682L894.302 65.3423L894.268 65.3226L863.546 117.752L802.772 121.36L802.772 121.364L802.62 122.352L862.586 131.557L896.041 176.513L896.844 175.916L896.838 175.908L896.839 175.908Z" fill="black"/>
<path fill-rule="evenodd" clip-rule="evenodd" d="M1142.66 -70.7618L1198.36 -64.5934L1238.62 -16.4873L1239.36 -17.1067L1239.4 -17.1258L1209.66 -70.1224L1237.25 -124.397L1237.24 -124.399L1236.47 -125.029L1198.24 -77.9238L1142.54 -71.7558L1142.65 -70.7619L1142.66 -70.763L1142.66 -70.7618Z" fill="black"/>
<path fill-rule="evenodd" clip-rule="evenodd" d="M1341.14 -73.7618L1285.44 -67.5934L1245.17 -19.4873L1244.43 -20.1067L1244.4 -20.1258L1274.13 -73.1224L1246.55 -127.397L1246.55 -127.399L1247.33 -128.029L1285.56 -80.9238L1341.26 -74.7558L1341.15 -73.7619L1341.14 -73.763L1341.14 -73.7618Z" fill="black"/>
<path fill-rule="evenodd" clip-rule="evenodd" d="M1363.66 -70.7618L1419.36 -64.5934L1459.62 -16.4873L1460.36 -17.1067L1460.4 -17.1258L1430.66 -70.1224L1458.25 -124.397L1458.24 -124.399L1457.47 -125.029L1419.24 -77.9238L1363.54 -71.7558L1363.65 -70.7619L1363.66 -70.763L1363.66 -70.7618Z" fill="black"/>
<path fill-rule="evenodd" clip-rule="evenodd" d="M1135.66 57.2382L1191.36 63.4066L1231.62 111.513L1232.36 110.893L1232.4 110.874L1202.66 57.8776L1230.25 3.60307L1230.24 3.60126L1229.47 2.97092L1191.24 50.0762L1135.54 56.2442L1135.65 57.2381L1135.66 57.237L1135.66 57.2382Z" fill="black"/>
<path fill-rule="evenodd" clip-rule="evenodd" d="M1130.7 65.6051L1153.51 116.796L1132.33 175.845L1133.24 176.17L1133.27 176.19L1163.99 123.76L1224.77 120.153L1224.77 120.149L1224.92 119.161L1164.95 109.956L1131.5 65.0001L1130.69 65.5971L1130.7 65.6047L1130.7 65.6051Z" fill="black"/>
<path fill-rule="evenodd" clip-rule="evenodd" d="M1128.7 -58.3949L1151.51 -7.20424L1130.33 51.8446L1131.24 52.1704L1131.27 52.1902L1161.99 -0.239548L1222.77 -3.84694L1222.77 -3.85092L1222.92 -4.83931L1162.95 -14.044L1129.5 -58.9999L1128.69 -58.4029L1128.7 -58.3953L1128.7 -58.3949Z" fill="black"/>
<path fill-rule="evenodd" clip-rule="evenodd" d="M1247.52 119.238L1303.22 125.407L1343.48 173.513L1344.22 172.893L1344.26 172.874L1314.53 119.878L1342.11 65.6031L1342.1 65.6013L1341.33 64.9709L1303.1 112.076L1247.4 118.244L1247.51 119.238L1247.52 119.237L1247.52 119.238Z" fill="black"/>
<path fill-rule="evenodd" clip-rule="evenodd" d="M1358.52 54.2382L1414.22 60.4066L1454.48 108.513L1455.22 107.893L1455.26 107.874L1425.53 54.8776L1453.11 0.603073L1453.1 0.601257L1452.33 -0.0290833L1414.1 47.0762L1358.4 53.2442L1358.51 54.2381L1358.52 54.237L1358.52 54.2382Z" fill="black"/>
<path fill-rule="evenodd" clip-rule="evenodd" d="M1334.14 54.2382L1278.44 60.4066L1238.17 108.513L1237.43 107.893L1237.4 107.874L1267.13 54.8776L1239.55 0.603073L1239.55 0.601257L1240.33 -0.0290833L1278.56 47.0762L1334.26 53.2442L1334.15 54.2381L1334.14 54.237L1334.14 54.2382Z" fill="black"/>
<path fill-rule="evenodd" clip-rule="evenodd" d="M1353.56 62.6051L1376.37 113.796L1355.19 172.845L1356.1 173.17L1356.13 173.19L1386.85 120.76L1447.63 117.153L1447.63 117.149L1447.78 116.161L1387.81 106.956L1354.36 62.0001L1353.55 62.5971L1353.56 62.6047L1353.56 62.6051Z" fill="black"/>
<path fill-rule="evenodd" clip-rule="evenodd" d="M1343.36 -61.3949L1320.55 -10.2042L1341.73 48.8446L1340.82 49.1704L1340.78 49.1902L1310.06 -3.23955L1249.29 -6.84694L1249.29 -6.85092L1249.14 -7.83931L1309.1 -17.044L1342.56 -61.9999L1343.36 -61.4029L1343.35 -61.3953L1343.36 -61.3949Z" fill="black"/>
<path fill-rule="evenodd" clip-rule="evenodd" d="M1351.56 -61.3949L1374.37 -10.2042L1353.19 48.8446L1354.1 49.1704L1354.13 49.1902L1384.85 -3.23955L1445.63 -6.84694L1445.63 -6.85092L1445.78 -7.83931L1385.81 -17.044L1352.36 -61.9999L1351.55 -61.4029L1351.56 -61.3953L1351.56 -61.3949Z" fill="black"/>
</svg>
