<svg width="1440" height="337" viewBox="0 0 1440 337" fill="none" xmlns="http://www.w3.org/2000/svg">
<path d="M1231.15 530.785C1179.01 585.027 1126.67 641.297 1074.17 697.746C924.109 859.073 772.687 1021.86 620.821 1142.97C415.809 1306.46 210.284 1393.74 6.4492 1299.16C-219.259 1194.42 -333.47 1046.72 -374.552 887.298C-415.643 727.841 -383.604 556.542 -316.577 404.605C-249.55 252.67 -147.57 120.178 -48.9 38.3627C0.438951 -2.5484 48.9072 -30.7524 91.7261 -42.4087C134.535 -54.0626 171.59 -49.1574 198.309 -24.0256C298.572 70.2809 369.546 120.422 430.658 138.062C491.858 155.728 543.065 140.773 603.666 105.263C636.398 86.0833 671.883 60.9072 713.199 31.5944C824.848 -47.6188 979.074 -157.04 1236.63 -259.972C1324.83 -295.221 1398.73 -317.447 1459.55 -328.343C1520.38 -339.241 1568.07 -338.797 1603.88 -328.758C1639.67 -318.726 1663.58 -299.117 1676.93 -271.627C1690.29 -244.108 1693.1 -208.6 1686.48 -166.715C1673.22 -82.936 1622.25 26.054 1543.12 146.828C1464.01 267.584 1356.8 400.055 1231.15 530.785Z" stroke="url(#paint0_linear_480_793)" stroke-opacity="0.27" stroke-width="1.49174"/>
<path d="M1205.05 517.388C1154.6 570.96 1103.98 626.504 1053.2 682.225C908.078 841.469 761.636 1002.16 614.068 1122.38C414.861 1284.67 213.896 1372.98 11.6016 1284.68C-212.408 1186.89 -327.318 1045.46 -370.403 891.382C-413.498 737.269 -384.77 570.39 -321.264 421.704C-257.758 273.019 -159.509 142.608 -63.6855 61.4587C-15.7697 20.881 31.4969 -7.34256 73.4714 -19.4017C115.436 -31.458 152.004 -27.3368 178.727 -3.40228C279.024 86.4302 349.751 133.889 410.231 149.959C470.801 166.053 520.989 150.643 580.089 115.113C612.011 95.9217 646.544 70.8608 686.75 41.6823C795.401 -37.1663 945.483 -146.082 1197.43 -250.488C1283.71 -286.242 1356.13 -309.103 1415.85 -320.736C1475.57 -332.371 1522.55 -332.766 1557.98 -323.64C1593.38 -314.52 1617.25 -295.897 1630.85 -269.441C1644.46 -242.956 1647.81 -208.532 1641.98 -167.749C1630.31 -86.1751 1581.9 20.5326 1505.97 139.172C1430.04 257.793 1326.64 388.276 1205.05 517.388Z" stroke="url(#paint1_linear_480_793)" stroke-opacity="0.27" stroke-width="1.49174"/>
<path d="M1179.2 504.68C1130.42 557.545 1081.51 612.327 1032.44 667.283C892.213 824.34 750.712 982.822 607.437 1102.05C414.023 1263 217.666 1352.17 17.0934 1269.98C-205.016 1178.97 -320.453 1043.7 -365.401 894.924C-410.359 746.11 -384.83 583.663 -324.769 438.268C-264.708 292.873 -170.148 164.612 -77.1629 84.2001C-30.6668 43.9911 15.3926 15.7836 56.5081 3.35447C97.6135 -9.0717 133.67 -5.70468 160.363 17.0559C260.57 102.5 330.975 147.336 390.776 161.886C450.669 176.457 499.823 160.63 557.414 125.124C588.521 105.946 622.102 81.0258 661.199 52.0117C766.849 -26.3912 912.785 -134.69 1159.07 -240.376C1243.41 -276.569 1314.31 -300.008 1372.9 -312.332C1431.5 -324.658 1477.73 -325.854 1512.75 -317.611C1547.75 -309.375 1571.55 -291.717 1585.36 -266.282C1599.19 -240.818 1603.07 -207.472 1597.99 -167.793C1587.85 -88.4286 1541.96 15.9656 1469.17 132.418C1396.39 248.852 1296.76 377.274 1179.2 504.68Z" stroke="url(#paint2_linear_480_793)" stroke-opacity="0.27" stroke-width="1.49174"/>
<path d="M1153.61 492.648C1106.49 544.77 1059.27 598.754 1011.9 652.909C876.529 807.678 739.928 963.848 600.935 1081.98C413.301 1241.44 221.596 1331.33 22.9241 1255.08C-197.088 1170.65 -312.881 1041.44 -359.55 897.913C-406.229 754.35 -383.789 596.342 -327.095 454.275C-270.4 312.209 -179.483 186.164 -89.3285 106.56C-44.2476 66.7544 0.600111 38.5984 40.8425 25.8319C81.0746 13.0686 116.597 15.711 143.227 37.3217C243.221 118.466 313.227 160.74 372.305 173.818C431.475 186.917 479.578 170.712 535.655 135.274C565.945 116.132 598.573 91.3784 636.561 62.5584C739.211 -15.3191 880.999 -122.889 1121.56 -229.665C1203.94 -266.23 1273.3 -290.192 1330.74 -303.16C1388.19 -316.129 1433.65 -318.089 1468.24 -310.701C1502.8 -303.318 1526.5 -286.605 1540.51 -262.177C1554.53 -237.721 1558.89 -205.446 1554.55 -166.874C1545.88 -89.7197 1502.46 12.3316 1432.76 126.547C1363.08 240.743 1267.17 367.033 1153.61 492.648Z" stroke="url(#paint3_linear_480_793)" stroke-opacity="0.27" stroke-width="1.49174"/>
<path d="M1128.3 481.274C1082.83 532.619 1037.29 585.77 991.603 639.09C861.039 791.47 729.293 945.229 594.569 1062.15C412.698 1219.99 225.685 1310.44 29.089 1239.96C-188.63 1161.91 -304.61 1038.66 -352.859 900.331C-401.119 761.968 -381.655 608.406 -328.247 469.702C-274.84 331 -187.518 207.237 -100.184 128.508C-56.5128 89.1403 -12.8806 61.071 26.4753 47.9997C65.8207 34.9318 100.786 36.8797 127.321 57.3648C226.978 134.3 296.512 174.072 354.822 185.73C413.225 197.407 460.262 180.862 514.821 145.536C544.291 126.454 575.967 101.891 612.846 73.2943C712.498 -3.9786 850.142 -110.711 1084.92 -218.383C1165.32 -255.256 1233.13 -279.685 1289.39 -293.25C1345.66 -306.816 1390.33 -309.502 1424.46 -302.939C1458.56 -296.38 1482.13 -280.59 1496.31 -257.155C1510.5 -233.693 1515.31 -202.484 1511.69 -165.017C1504.43 -90.0749 1463.41 9.60603 1396.76 121.535C1330.12 233.446 1237.9 357.534 1128.3 481.274Z" stroke="url(#paint4_linear_480_793)" stroke-opacity="0.27" stroke-width="1.49174"/>
<path d="M1103.3 470.543C1059.46 521.077 1015.58 573.361 971.558 625.812C845.757 775.706 718.82 926.955 588.349 1042.56C412.221 1198.63 229.937 1289.49 35.5904 1224.61C-179.644 1152.76 -295.642 1035.35 -345.33 902.167C-395.029 768.949 -378.429 619.834 -328.227 484.527C-278.025 349.221 -194.251 227.803 -109.723 150.017C-67.4563 111.121 -25.0426 83.1727 13.4142 69.8291C51.8603 56.4892 86.2461 57.7726 112.654 77.1573C211.853 149.975 280.842 187.31 338.339 197.597C395.931 207.902 441.888 191.056 494.925 155.884C523.573 136.886 554.299 112.54 590.071 84.1944C686.729 7.60393 820.234 -98.1839 1049.18 -206.562C1127.58 -243.677 1193.82 -268.518 1248.88 -282.632C1303.95 -296.749 1347.8 -300.123 1381.44 -294.354C1415.06 -288.59 1438.48 -273.701 1452.79 -251.245C1467.12 -228.762 1472.37 -198.611 1469.42 -162.25C1463.52 -89.5187 1424.85 7.76605 1361.2 117.363C1297.55 226.942 1208.96 348.761 1103.3 470.543Z" stroke="url(#paint5_linear_480_793)" stroke-opacity="0.27" stroke-width="1.49174"/>
<path d="M1078.61 460.439C1036.39 510.128 994.149 561.513 951.779 613.061C830.693 760.375 708.514 909.018 582.278 1023.21C411.868 1177.37 234.346 1268.5 42.4194 1209.03C-170.143 1143.18 -285.991 1031.5 -336.978 903.405C-387.976 775.275 -374.125 630.607 -327.046 498.726C-279.967 366.847 -199.689 247.835 -117.955 171.058C-77.0843 132.666 -35.8912 104.874 1.65452 91.2902C39.1893 77.7107 72.9743 78.36 99.2226 96.6697C197.845 165.464 266.215 200.425 322.858 209.393C379.595 218.377 424.459 201.269 475.972 166.295C503.797 147.402 533.573 123.297 568.24 95.2318C661.91 19.4004 791.285 -85.336 1014.35 -194.232C1090.74 -231.523 1155.38 -256.72 1209.23 -271.338C1263.08 -285.958 1306.08 -289.982 1339.22 -284.978C1372.32 -279.978 1395.57 -265.968 1409.99 -244.475C1424.43 -222.956 1430.08 -193.856 1427.78 -158.599C1423.18 -88.0769 1386.8 6.78747 1326.09 114.008C1265.38 221.209 1180.38 340.694 1078.61 460.439Z" stroke="url(#paint6_linear_480_793)" stroke-opacity="0.27" stroke-width="1.49174"/>
<path d="M1054.26 450.947C1013.63 499.759 973.018 550.212 932.279 600.825C815.855 745.466 698.382 891.411 576.362 1004.09C411.641 1156.21 238.911 1247.44 49.572 1193.22C-160.132 1133.17 -275.666 1027.11 -327.811 904.033C-379.968 780.931 -368.75 640.706 -324.71 512.28C-280.671 383.854 -203.835 267.307 -124.879 191.604C-85.3974 153.749 -45.4263 126.147 -8.80275 112.356C27.8094 98.5689 60.9726 98.6145 87.03 115.875C184.956 180.742 252.638 213.394 308.383 221.095C364.224 228.81 407.982 211.478 457.969 176.742C484.97 157.979 513.8 134.138 547.365 106.381C638.055 31.3848 763.31 -72.1957 980.451 -181.421C1054.81 -218.825 1117.84 -244.322 1170.45 -259.397C1223.06 -274.473 1265.2 -279.109 1297.8 -274.84C1330.37 -270.573 1353.41 -257.42 1367.92 -236.874C1382.44 -216.305 1388.46 -188.247 1386.78 -154.093C1383.43 -85.7751 1349.29 6.64679 1291.46 111.448C1233.64 216.23 1152.18 333.318 1054.26 450.947Z" stroke="url(#paint7_linear_480_793)" stroke-opacity="0.27" stroke-width="1.49174"/>
<path d="M1030.26 442.049C991.211 489.953 952.208 539.443 913.08 589.09C801.265 730.967 688.442 874.123 570.613 985.192C411.551 1135.13 243.639 1226.33 57.0515 1177.16C-149.613 1122.71 -264.668 1022.14 -317.831 904.036C-371.007 785.899 -362.307 650.11 -321.222 525.164C-280.136 400.218 -206.689 286.193 -130.493 211.628C-92.391 174.342 -53.6423 146.962 -17.9516 132.996C17.7272 119.034 50.2483 118.507 76.0836 134.745C173.197 195.783 240.119 226.191 294.925 232.677C349.83 239.174 392.469 221.656 440.93 187.202C467.108 168.591 494.994 145.037 527.461 117.617C615.18 43.5292 736.328 -58.7925 947.51 -168.16C1019.83 -205.613 1081.23 -231.356 1132.58 -246.84C1183.94 -262.327 1225.19 -267.536 1257.23 -263.97C1289.24 -260.407 1312.05 -248.086 1326.61 -228.473C1341.19 -208.836 1347.56 -181.811 1346.47 -148.757C1344.3 -82.6396 1312.34 7.31932 1257.34 109.66C1202.35 211.981 1124.37 326.612 1030.26 442.049Z" stroke="url(#paint8_linear_480_793)" stroke-opacity="0.27" stroke-width="1.49174"/>
<path d="M1006.64 433.729C969.145 480.694 931.728 529.191 894.193 577.84C786.927 716.868 678.697 857.146 565.033 966.505C411.594 1114.13 248.525 1205.15 64.8491 1160.86C-138.598 1111.81 -253.012 1016.61 -307.054 903.402C-361.109 790.165 -354.81 658.803 -316.591 537.359C-278.373 415.915 -208.258 304.467 -134.803 231.102C-98.071 194.416 -60.5443 167.293 -25.7964 153.183C8.93939 139.078 40.7985 138.009 66.381 153.251C162.565 210.559 228.659 238.791 282.487 244.114C336.414 249.447 377.924 231.78 424.86 197.648C450.214 179.211 477.161 155.969 508.533 128.911C593.293 55.8064 710.351 -45.1552 915.538 -154.479C985.805 -191.917 1045.56 -217.852 1095.64 -233.699C1145.72 -249.549 1186.06 -255.294 1217.51 -252.4C1248.94 -249.51 1271.5 -237.999 1286.09 -219.301C1300.7 -200.58 1307.38 -174.579 1306.86 -142.622C1305.82 -78.6976 1275.97 8.77986 1223.74 108.622C1171.52 208.444 1096.98 320.557 1006.64 433.729Z" stroke="url(#paint9_linear_480_793)" stroke-opacity="0.27" stroke-width="1.49174"/>
<path d="M983.395 425.97C947.447 471.966 911.595 519.44 875.631 567.063C772.856 703.155 669.157 840.47 559.63 948.024C411.776 1093.21 253.569 1183.9 72.9631 1144.31C-127.091 1100.44 -240.704 1010.5 -295.485 902.118C-350.28 793.712 -346.265 666.766 -310.826 548.844C-275.387 430.923 -208.547 322.104 -137.81 250C-102.439 213.944 -66.1329 187.11 -32.3367 172.889C1.44675 158.673 32.6246 157.092 57.924 171.366C153.065 225.046 218.262 251.17 271.073 255.383C323.982 259.603 364.354 241.826 409.766 208.057C434.297 189.816 460.309 166.908 490.592 140.24C572.407 68.1893 685.393 -31.3125 884.556 -140.409C952.76 -177.77 1010.86 -203.841 1059.64 -220.005C1108.43 -236.172 1147.84 -242.413 1178.69 -240.162C1209.51 -237.913 1231.79 -227.188 1246.38 -209.388C1261 -191.566 1267.97 -166.578 1267.98 -135.714C1268.01 -73.9758 1240.21 11.0033 1190.69 108.309C1141.19 205.596 1070.02 315.136 983.395 425.97Z" stroke="url(#paint10_linear_480_793)" stroke-opacity="0.27" stroke-width="1.49174"/>
<path d="M960.561 418.753C926.134 463.751 891.826 510.173 857.411 556.741C759.063 689.817 659.833 824.086 554.412 929.742C412.101 1072.37 258.771 1162.59 81.3896 1127.49C-115.101 1088.62 -227.753 1003.79 -283.136 900.171C-338.532 796.525 -336.683 673.979 -303.934 559.597C-271.186 445.215 -207.559 339.076 -139.52 268.293C-105.497 232.898 -70.4099 206.385 -37.574 192.084C-4.75118 177.789 25.7269 175.728 50.7132 189.061C144.699 239.215 208.933 263.3 260.687 266.456C312.542 269.617 351.765 251.767 395.656 218.401C419.366 200.377 444.448 177.826 473.647 151.573C552.532 80.6483 661.468 -17.2959 854.582 -125.983C920.714 -163.204 977.143 -189.357 1024.61 -205.793C1072.09 -222.23 1110.55 -228.929 1140.78 -227.288C1170.98 -225.649 1192.95 -215.687 1207.52 -198.767C1222.11 -181.827 1229.34 -157.842 1229.86 -128.066C1230.9 -68.5035 1205.08 13.9624 1158.22 108.698C1111.37 203.414 1043.51 310.326 960.561 418.753Z" stroke="url(#paint11_linear_480_793)" stroke-opacity="0.27" stroke-width="1.49174"/>
<path d="M938.147 412.064C905.22 456.037 872.434 501.379 839.545 546.864C745.559 676.844 650.732 807.987 549.383 911.653C412.57 1051.59 264.13 1141.2 90.1249 1110.42C-102.635 1076.32 -214.169 996.487 -270.016 897.551C-325.876 798.592 -326.073 680.427 -295.925 569.601C-265.777 458.774 -205.303 355.362 -139.936 285.959C-107.249 251.254 -73.3787 225.094 -41.5107 210.745C-9.65647 196.402 20.1038 193.892 44.7476 206.313C137.467 253.046 200.672 275.161 251.333 277.313C302.095 279.469 340.162 261.583 382.536 228.66C405.426 210.875 429.583 188.703 457.705 162.891C533.677 93.1608 638.587 -3.12964 825.63 -111.227C889.684 -148.245 944.43 -174.428 990.573 -191.087C1036.72 -207.749 1074.22 -214.868 1103.8 -213.806C1133.35 -212.745 1154.99 -203.521 1169.51 -187.464C1184.05 -171.387 1191.51 -148.393 1192.51 -119.7C1194.5 -62.3034 1170.61 17.6358 1126.34 109.768C1082.08 201.881 1017.48 306.112 938.147 412.064Z" stroke="url(#paint12_linear_480_793)" stroke-opacity="0.27" stroke-width="1.49174"/>
<path d="M916.171 405.884C884.723 448.804 853.434 493.041 822.047 537.416C732.357 664.223 641.865 792.162 544.551 893.75C413.186 1030.89 269.647 1119.73 99.1651 1093.08C-89.7003 1063.55 -199.962 988.575 -256.135 894.247C-312.321 799.897 -314.447 686.093 -286.808 578.835C-259.169 471.576 -201.783 370.938 -139.063 302.971C-107.7 268.984 -75.0416 243.209 -44.1486 228.843C-13.2698 214.483 15.7553 211.556 40.0275 223.093C131.372 266.511 193.482 286.727 243.014 287.929C292.648 289.134 329.55 271.248 370.412 238.807C392.485 221.282 415.723 199.51 442.775 174.165C515.854 105.698 616.763 11.1551 797.719 -96.1728C859.688 -132.928 912.742 -159.086 957.546 -175.924C1002.36 -192.765 1038.87 -200.265 1067.78 -199.751C1096.66 -199.237 1117.95 -190.725 1132.39 -175.513C1146.86 -160.281 1154.52 -138.266 1155.96 -110.65C1158.84 -55.4065 1136.81 21.995 1095.07 111.493C1053.34 200.972 991.944 302.472 916.171 405.884Z" stroke="url(#paint13_linear_480_793)" stroke-opacity="0.27" stroke-width="1.49174"/>
<path d="M894.652 400.194C864.659 442.035 834.843 485.14 804.934 528.379C719.468 651.939 633.24 776.6 539.924 876.023C413.955 1010.23 275.322 1098.18 108.508 1075.46C-76.3033 1050.29 -185.139 980.044 -241.502 890.246C-297.879 800.426 -301.813 690.959 -276.591 587.279C-251.368 483.598 -197.005 385.777 -136.904 319.302C-106.851 286.062 -75.4012 260.702 -45.4894 246.35C-15.5923 232.005 12.6808 228.691 36.5529 239.373C126.414 279.584 187.367 297.972 235.734 298.279C284.205 298.586 319.936 280.738 359.291 248.816C380.55 231.572 402.876 210.221 428.866 185.368C499.072 118.23 596.01 25.5277 770.866 -80.854C830.747 -117.285 882.098 -143.366 925.549 -160.337C969.007 -177.31 1004.52 -185.153 1032.74 -185.155C1060.93 -185.156 1081.84 -177.332 1096.18 -162.945C1110.55 -148.54 1118.38 -127.492 1120.24 -100.945C1123.96 -47.8417 1103.72 27.0124 1064.45 113.848C1025.18 200.664 966.915 299.386 894.652 400.194Z" stroke="url(#paint14_linear_480_793)" stroke-opacity="0.27" stroke-width="1.49174"/>
<path d="M873.6 394.978C845.038 435.715 816.671 477.663 788.215 519.742C706.901 639.983 624.864 761.294 535.503 858.467C414.876 989.639 281.151 1076.55 118.146 1057.57C-62.4555 1036.55 -169.714 970.888 -226.132 885.538C-282.563 800.167 -288.186 695.011 -265.287 594.916C-242.387 494.819 -190.981 399.858 -133.471 334.93C-104.712 302.462 -74.4654 277.548 -45.5404 263.242C-16.6307 248.943 10.8743 245.273 34.3183 255.13C122.591 292.243 182.324 308.875 229.493 308.34C276.765 307.804 311.319 290.03 349.174 258.665C369.624 241.722 391.045 220.814 415.981 196.475C483.337 130.733 576.335 39.9617 745.083 -65.2985C860.705 -137.42 943.634 -169.077 998.692 -170.048C1026.17 -170.532 1046.69 -163.372 1060.91 -149.791C1075.14 -136.193 1083.13 -116.098 1085.37 -90.6141C1089.86 -39.6351 1071.36 32.6638 1034.48 116.81C997.611 200.936 942.412 296.834 873.6 394.978Z" stroke="url(#paint15_linear_480_793)" stroke-opacity="0.27" stroke-width="1.49174"/>
<path d="M853.034 390.217C825.879 429.825 798.933 470.592 771.904 511.487C694.667 628.341 616.746 746.233 531.297 841.073C415.952 969.094 287.135 1054.83 128.075 1039.41C-48.1639 1022.31 -153.697 961.099 -210.035 880.112C-266.386 799.105 -273.576 698.231 -252.906 601.727C-232.236 505.22 -183.718 413.157 -128.767 349.829C-101.288 318.161 -72.2385 293.723 -44.3051 279.492C-16.3875 265.269 10.3339 261.275 33.322 270.336C119.902 304.462 178.355 319.411 224.292 318.089C270.333 316.764 303.706 299.1 340.068 268.33C359.711 251.708 380.236 231.262 404.127 207.462C468.657 143.179 557.75 54.4275 720.386 -49.5378C831.821 -120.773 912.069 -152.588 965.67 -154.464C992.425 -155.4 1012.52 -148.876 1026.58 -136.082C1040.66 -123.272 1048.77 -104.116 1051.37 -79.6866C1056.57 -30.816 1039.73 38.9217 1005.19 120.353C970.651 201.766 918.454 294.796 853.034 390.217Z" stroke="url(#paint16_linear_480_793)" stroke-opacity="0.27" stroke-width="1.49174"/>
<path d="M832.969 385.892C807.195 424.348 781.645 463.912 756.015 503.599C682.778 617.001 608.894 731.408 527.311 823.833C417.186 948.594 293.273 1033.03 138.293 1020.95C-33.4368 1007.57 -137.097 950.669 -193.221 873.959C-249.359 797.23 -257.997 700.605 -239.46 607.693C-220.924 514.78 -175.225 425.651 -122.8 363.974C-96.5852 333.132 -68.7257 309.199 -41.788 295.074C-14.8667 280.958 11.0562 276.672 33.5615 284.967C118.347 316.216 175.46 329.556 220.133 327.502C264.912 325.442 297.098 307.925 331.977 277.785C350.818 261.504 370.454 241.54 393.31 218.303C455.042 155.541 540.266 68.8956 696.789 -33.6034C804.038 -103.835 881.583 -135.719 933.69 -138.435C959.699 -139.791 979.347 -133.879 993.235 -121.851C1007.14 -109.808 1015.34 -91.5774 1018.26 -68.1935C1024.12 -21.4138 1008.87 45.7587 976.593 124.454C944.322 203.129 895.058 293.251 832.969 385.892Z" stroke="url(#paint17_linear_480_793)" stroke-opacity="0.27" stroke-width="1.49174"/>
<path d="M813.422 381.985C789.003 419.266 764.82 457.605 740.561 496.063C671.246 605.95 601.319 716.807 523.554 806.74C418.583 928.136 299.566 1011.13 148.795 1002.21C-18.2808 992.33 -119.924 939.59 -175.702 867.068C-231.493 794.528 -241.457 702.117 -224.959 612.799C-208.46 523.478 -165.508 437.319 -115.576 377.343C-90.608 347.352 -63.9313 323.952 -37.9927 309.964C-12.0711 295.985 13.0392 291.437 35.0349 298.996C117.926 327.484 173.64 339.288 217.019 336.556C260.504 333.817 291.5 316.481 324.905 287.008C342.95 271.086 361.706 251.625 383.538 228.972C442.499 167.794 523.893 83.3382 674.309 -17.5257C777.374 -86.6376 852.195 -118.503 902.773 -121.995C928.018 -123.737 947.201 -118.411 960.887 -107.129C974.591 -95.8324 982.848 -78.5125 986.073 -56.1648C992.525 -11.4569 978.804 53.1481 948.72 129.086C918.644 205.004 872.243 292.178 813.422 381.985Z" stroke="url(#paint18_linear_480_793)" stroke-opacity="0.27" stroke-width="1.49174"/>
<path d="M794.404 378.477C771.313 414.563 748.469 451.655 725.553 488.862C660.077 595.175 594.025 702.423 520.026 789.787C420.142 907.714 306.01 989.136 159.574 983.178C-2.70889 976.577 -102.193 927.857 -157.493 859.431C-212.806 790.989 -223.976 702.755 -209.418 617.027C-194.859 531.296 -154.582 448.139 -107.108 389.912C-83.3687 360.796 -57.8662 337.958 -32.9295 324.136C-8.01015 310.324 16.2739 305.546 37.734 312.4C118.632 338.239 172.891 348.583 214.945 345.228C257.107 341.865 286.911 324.745 318.853 295.974C336.108 280.431 353.993 261.49 374.811 239.444C431.031 179.908 508.636 97.7257 652.954 -1.33607C751.842 -69.214 823.922 -100.972 872.936 -105.175C897.399 -107.273 916.095 -102.505 929.556 -91.9483C943.033 -81.3782 951.326 -64.9533 954.818 -43.6315C961.804 -0.975207 949.54 61.062 921.582 134.224C893.631 207.366 850.022 291.556 794.404 378.477Z" stroke="url(#paint19_linear_480_793)" stroke-opacity="0.27" stroke-width="1.49174"/>
<path d="M775.929 375.349C754.139 410.218 732.603 446.044 711.002 481.981C649.281 584.662 587.018 688.242 516.734 772.964C421.864 887.322 312.602 967.043 170.624 963.848C13.2697 960.307 -83.9151 915.46 -138.607 851.037C-193.312 786.599 -205.566 702.501 -192.851 620.359C-180.135 538.212 -142.458 458.088 -97.4051 401.658C-74.876 373.44 -50.5388 351.191 -26.6057 337.565C-2.69068 323.949 20.7542 318.973 41.6532 325.153C120.462 348.46 173.21 357.417 213.912 353.495C254.721 349.563 283.332 332.694 313.821 304.658C330.292 289.513 347.317 271.111 367.134 249.694C420.645 191.858 494.505 112.029 632.736 14.9339C727.455 -51.5972 796.778 -83.1608 844.195 -88.0107C867.861 -90.4313 886.05 -86.1961 899.26 -76.343C912.487 -66.4776 920.788 -50.9317 924.517 -30.625C931.977 10.0013 921.102 69.4719 895.198 139.841C869.301 210.191 828.412 291.363 775.929 375.349Z" stroke="url(#paint20_linear_480_793)" stroke-opacity="0.27" stroke-width="1.49174"/>
<path d="M758.009 372.589C737.491 406.222 717.235 440.764 696.917 475.411C638.865 574.405 580.306 674.264 513.68 756.272C423.749 866.963 319.341 944.857 181.938 944.226C29.6441 943.526 -65.1041 902.403 -119.059 841.886C-173.026 781.356 -186.243 701.352 -175.273 622.787C-164.302 544.218 -129.149 467.154 -86.4782 412.566C-65.1405 385.268 -41.9586 363.637 -19.0306 350.236C3.87906 336.845 26.4725 331.702 46.7853 337.239C123.411 358.129 174.594 365.777 213.915 361.343C253.344 356.896 280.761 340.313 309.811 313.046C325.504 298.317 341.68 280.472 360.507 259.704C411.342 203.625 481.503 126.227 613.666 31.2615C704.228 -33.8117 770.78 -65.094 816.568 -70.526C839.421 -73.2372 857.082 -69.5077 870.019 -60.3369C882.972 -51.1546 891.252 -36.4713 895.188 -17.1682C903.063 21.4512 893.507 78.3582 869.585 145.921C845.67 213.464 807.425 291.585 758.009 372.589Z" stroke="url(#paint21_linear_480_793)" stroke-opacity="0.27" stroke-width="1.49174"/>
<path d="M740.67 370.166C721.394 402.545 702.387 435.783 683.322 469.123C628.851 564.38 573.907 660.465 510.881 739.689C425.812 846.621 326.236 922.561 193.523 924.295C46.4154 926.216 -45.7614 888.666 -98.8505 831.958C-151.952 775.237 -166.012 699.281 -156.687 624.284C-147.361 549.283 -114.655 475.305 -74.3272 422.602C-54.1609 396.247 -32.1237 375.258 -10.2011 362.111C11.7026 348.975 33.4331 343.695 53.1352 348.622C127.486 367.213 177.051 373.628 214.965 368.736C252.988 363.83 279.211 347.567 306.835 321.102C321.757 306.806 337.095 289.536 354.945 269.437C403.14 215.17 469.651 140.28 595.766 47.6031C682.186 -15.9027 745.955 -46.8178 790.084 -52.7674C812.108 -55.7366 829.222 -52.4858 841.861 -43.9754C854.516 -35.4543 862.75 -21.6166 866.863 -3.30501C875.093 33.3315 866.784 87.68 844.772 152.423C822.766 217.148 787.09 292.189 740.67 370.166Z" stroke="url(#paint22_linear_480_793)" stroke-opacity="0.27" stroke-width="1.49174"/>
<path d="M723.917 368.066C705.854 399.173 688.065 431.092 670.221 463.108C619.241 554.578 567.819 646.841 508.334 723.215C428.046 826.297 333.278 900.16 205.366 904.058C63.5673 908.38 -25.9057 874.25 -78.003 821.25C-130.112 768.239 -144.893 696.283 -137.113 624.841C-129.334 553.394 -98.9967 482.525 -60.9701 431.75C-41.9545 406.359 -21.0507 386.039 -0.133277 373.175C20.7647 360.322 41.6213 354.937 60.6888 359.284C132.675 375.695 180.571 380.953 217.052 375.66C253.644 370.35 278.673 354.44 304.885 328.809C319.046 314.963 333.556 298.285 350.444 278.875C396.034 226.474 458.946 154.165 579.04 63.9344C661.334 2.1038 722.31 -28.3586 764.751 -34.761C785.932 -37.9561 802.479 -35.1569 814.799 -27.2844C827.133 -19.4022 835.293 -6.39271 839.553 10.9401C848.078 45.6193 840.946 97.4159 820.769 159.33C800.598 221.225 767.413 293.159 723.917 368.066Z" stroke="url(#paint23_linear_480_793)" stroke-opacity="0.27" stroke-width="1.49174"/>
<path d="M707.764 366.271C690.883 396.089 674.279 426.673 657.624 457.349C610.043 544.988 562.051 633.382 506.044 706.841C430.453 805.986 340.465 877.651 217.461 883.514C81.0886 890.013 -5.55106 859.15 -56.5312 809.756C-107.523 760.352 -122.903 692.345 -116.57 624.443C-110.235 556.536 -82.1876 488.796 -46.4194 439.989C-28.5331 415.583 -8.75045 395.957 11.1626 383.404C31.0558 370.862 51.0283 365.403 69.4379 369.203C138.971 383.554 185.148 387.732 220.174 382.092C255.309 376.433 279.147 360.909 303.963 336.144C317.369 322.765 331.065 306.695 347.004 287.993C390.029 237.51 449.394 167.854 563.496 80.2239C641.686 20.1744 699.862 -9.75098 740.587 -16.5414C760.911 -19.9302 776.873 -17.5552 788.849 -10.2981C800.84 -3.03213 808.899 9.16722 813.277 25.5346C822.036 58.2834 816.01 107.537 797.593 166.613C779.182 225.671 748.41 294.473 707.764 366.271Z" stroke="url(#paint24_linear_480_793)" stroke-opacity="0.27" stroke-width="1.49174"/>
<path d="M692.223 364.761C676.493 393.275 661.041 422.508 645.543 451.829C601.266 535.594 556.61 620.077 504.017 690.559C433.035 785.683 347.797 855.031 229.802 862.657C98.9708 871.113 15.2916 843.361 -34.4476 797.469C-84.1976 751.566 -100.058 687.455 -95.0686 623.076C-90.0789 558.691 -64.2397 494.099 -30.686 447.3C-13.907 423.898 4.76739 404.991 23.6779 392.776C42.568 380.574 61.6468 375.072 79.3757 378.356C146.371 390.766 190.781 393.943 224.327 388.011C257.983 382.059 280.632 366.954 304.068 343.085C316.729 330.19 329.623 314.743 344.628 296.768C385.128 248.252 441.002 181.319 549.146 96.4417C623.254 38.2776 678.623 8.97294 717.606 1.85903C737.061 -1.69111 752.419 0.287194 764.029 6.95176C775.654 13.6245 783.586 25.0321 788.051 40.4482C796.987 71.2945 791.995 118.015 775.261 174.248C758.534 230.461 730.095 296.109 692.223 364.761Z" stroke="url(#paint25_linear_480_793)" stroke-opacity="0.27" stroke-width="1.49174"/>
<path d="M677.31 363.515C662.699 390.711 648.366 418.58 633.99 446.532C592.922 526.384 551.504 606.916 502.258 674.361C435.797 765.383 355.275 832.298 242.387 841.486C117.205 851.676 36.6107 826.878 -11.7652 784.381C-60.1515 741.874 -76.3707 681.602 -72.6248 620.726C-68.8784 559.844 -45.1657 498.417 -13.7809 453.662C1.91351 431.282 19.4933 413.119 37.4034 401.269C55.2929 389.434 73.4693 383.92 90.4952 386.721C154.869 397.313 197.465 399.565 229.51 393.396C261.666 387.206 283.13 372.552 305.202 349.608C317.127 337.214 329.232 322.406 343.319 305.176C381.335 258.676 433.775 194.532 535.999 112.557C606.052 56.3807 658.611 27.7797 695.827 20.4069C714.399 16.7276 729.135 18.3368 740.359 24.4321C751.596 30.5349 759.374 41.1697 763.897 55.6491C772.949 84.6221 768.918 128.821 753.792 182.206C738.672 235.573 712.485 298.046 677.31 363.515Z" stroke="url(#paint26_linear_480_793)" stroke-opacity="0.27" stroke-width="1.49174"/>
<path d="M663.033 362.515C649.508 388.378 636.259 414.87 622.971 441.441C585.014 517.344 546.735 593.888 500.769 658.238C438.736 745.081 362.891 809.448 255.206 819.998C135.777 831.699 58.389 809.697 11.4971 770.486C-35.4047 731.267 -51.8626 674.776 -49.2582 617.381C-46.6536 559.979 -24.9841 501.729 4.27872 459.055C18.912 437.716 35.4115 420.318 52.3244 408.862C69.2164 397.42 86.482 391.925 102.783 394.276C164.454 403.17 205.191 404.577 235.715 398.227C266.35 391.853 286.632 377.682 307.36 355.693C318.558 343.813 329.889 329.66 343.072 313.192C378.648 268.755 427.715 207.465 524.06 128.539C590.087 74.4503 639.834 46.6348 675.26 39.0674C692.937 35.2913 707.035 36.5591 717.849 42.1087C728.677 47.6651 736.275 57.5465 740.827 71.1045C749.936 98.2347 746.794 139.927 733.198 190.462C719.607 240.978 695.589 300.26 663.033 362.515Z" stroke="url(#paint27_linear_480_793)" stroke-opacity="0.27" stroke-width="1.49174"/>
<path d="M649.407 361.739C636.934 386.257 624.736 411.361 612.501 436.54C577.555 508.459 542.315 580.982 499.557 642.183C441.856 724.773 370.649 786.479 268.256 798.19C154.681 811.179 80.6176 791.813 35.3288 755.778C-9.96947 719.736 -26.5463 666.966 -24.9814 613.027C-23.4165 559.08 -3.70587 504.019 23.4831 463.46C37.0793 443.178 52.5136 426.57 68.4331 415.534C84.3314 404.512 100.679 399.066 116.235 400.999C175.125 408.319 213.958 408.959 242.941 402.481C257.458 399.237 269.513 394.206 280.377 387.338C291.231 380.475 300.857 371.803 310.544 361.315C321.025 349.967 331.595 336.482 343.893 320.793C377.073 278.463 422.829 220.09 513.342 144.356C575.373 92.4543 622.309 65.5053 655.922 57.8077C672.694 53.9667 686.136 54.921 696.52 59.9488C706.917 64.9827 714.309 74.1305 718.86 86.7828C727.968 112.102 725.642 151.302 713.497 198.988C701.357 246.655 679.426 302.728 649.407 361.739Z" stroke="url(#paint28_linear_480_793)" stroke-opacity="0.27" stroke-width="1.49174"/>
<path d="M636.442 361.169C624.988 384.331 613.804 408.036 602.587 431.811C570.55 499.717 538.246 568.187 498.624 626.187C471.889 665.324 441.863 699.625 406.407 725.722C370.972 751.804 330.075 769.719 281.529 776.059C173.903 790.114 103.28 773.224 59.7119 740.253C16.1347 707.276 -0.441671 658.163 0.186019 607.652C0.813804 557.134 18.6508 505.272 43.8153 466.86C56.3993 447.651 70.7842 431.854 85.7146 421.264C100.624 410.689 116.046 405.322 130.836 406.871C186.869 412.739 223.757 412.691 251.181 406.141C264.919 402.86 276.291 397.947 286.504 391.331C296.709 384.722 305.715 376.438 314.748 366.456C324.524 355.653 334.348 342.85 345.777 327.956C376.608 287.777 419.116 232.38 503.847 159.98C561.917 110.361 606.044 84.3589 637.824 76.5951C653.68 72.7213 666.451 73.3902 676.384 77.9201C686.329 82.4556 693.49 90.8901 698.011 102.653C707.058 126.194 705.474 162.92 694.702 207.758C683.935 252.578 664.004 305.431 636.442 361.169Z" stroke="url(#paint29_linear_480_793)" stroke-opacity="0.27" stroke-width="1.49174"/>
<path d="M624.147 360.785C613.678 382.581 603.472 404.878 593.238 427.239C564.006 491.104 534.535 555.495 497.974 610.244C473.305 647.186 445.449 679.67 412.33 704.593C379.23 729.501 340.836 746.886 295.019 753.606C193.432 768.505 126.362 753.927 84.63 723.907C42.8897 693.881 26.4327 648.359 26.2259 601.247C26.0191 554.128 42.0688 505.47 65.2597 469.236C76.8567 451.117 90.2087 436.152 104.155 426.034C118.08 415.931 132.572 410.674 146.576 411.872C199.677 416.412 234.579 415.754 260.428 409.187C273.378 405.897 284.066 401.123 293.63 394.777C303.186 388.438 311.58 380.557 319.97 371.094C329.052 360.851 338.145 348.743 348.723 334.659C377.253 296.673 416.58 244.31 495.583 175.381C549.729 128.14 591.052 103.163 620.978 95.3966C635.909 91.5219 647.993 91.9334 657.454 95.9898C666.927 100.051 673.831 107.793 678.292 118.684C687.221 140.481 686.307 174.751 676.828 216.746C667.353 258.723 649.337 308.345 624.147 360.785Z" stroke="url(#paint30_linear_480_793)" stroke-opacity="0.27" stroke-width="1.49174"/>
<path d="M612.539 360.568C603.019 380.988 593.755 401.867 584.466 422.807C557.936 482.607 531.191 542.893 497.615 594.345C474.96 629.06 449.236 659.684 418.438 683.374C387.659 707.048 351.773 723.828 308.724 730.827C213.262 746.347 149.854 733.919 110.073 706.734C70.2831 679.543 54.0636 637.545 53.1252 593.8C52.1867 550.048 66.5366 504.6 87.8058 470.572C98.4419 453.557 110.778 439.445 123.747 429.824C136.694 420.219 150.249 415.101 163.449 415.981C213.547 419.318 246.424 418.129 270.681 411.599C282.834 408.327 292.836 403.713 301.755 397.655C310.665 391.603 318.454 384.139 326.212 375.207C334.61 365.538 342.988 354.138 352.734 340.879C379.011 305.126 415.225 255.852 488.559 190.529C538.821 145.757 577.345 121.884 605.401 114.179C619.398 110.335 630.78 110.517 639.749 114.125C648.73 117.737 655.352 124.808 659.725 134.844C668.476 154.931 668.158 186.767 659.891 225.925C651.629 265.065 635.441 311.447 612.539 360.568Z" stroke="url(#paint31_linear_480_793)" stroke-opacity="0.27" stroke-width="1.49174"/>
<path d="M601.627 360.496C593.019 379.531 584.661 398.987 576.28 418.497C552.345 474.211 528.218 530.372 497.548 578.48C476.855 610.94 453.223 639.664 424.728 662.061C396.253 684.444 362.88 700.542 322.635 707.72C233.379 723.639 173.741 713.197 136.022 688.73C98.2951 664.257 82.4311 625.712 80.8642 585.3C79.2969 544.881 92.0352 502.644 111.436 470.851C121.138 454.952 132.476 441.713 144.473 432.614C156.449 423.532 169.063 418.584 181.44 419.179C228.465 421.437 259.28 419.796 281.932 413.357C293.282 410.131 302.595 405.697 310.871 399.944C319.139 394.198 326.33 387.163 333.467 378.775C341.195 369.693 348.874 359.013 357.805 346.593C381.882 313.11 415.053 266.979 482.779 205.393C529.199 163.181 564.934 140.488 591.103 132.908C604.157 129.127 614.822 129.108 623.28 132.292C631.749 135.479 638.065 141.9 642.32 151.1C650.837 169.514 651.04 198.938 643.905 235.267C636.774 271.578 622.327 314.716 601.627 360.496Z" stroke="url(#paint32_linear_480_793)" stroke-opacity="0.27" stroke-width="1.49174"/>
<path d="M591.448 360.612C583.718 378.256 576.227 396.281 568.716 414.356C547.268 465.965 525.651 517.982 497.807 562.706C479.021 592.88 457.439 619.665 431.229 640.714C405.038 661.748 374.182 677.089 336.775 684.346C253.801 700.444 198.036 691.823 162.489 669.954C126.936 648.081 111.545 612.915 109.452 575.801C107.359 538.677 118.575 499.651 136.162 470.118C144.957 455.349 155.315 443.002 166.349 434.45C177.36 425.915 189.029 421.166 200.565 421.509C244.452 422.814 273.169 420.801 294.201 414.506C304.741 411.352 313.365 407.12 321.002 401.689C328.631 396.264 335.233 389.673 341.76 381.84C348.829 373.358 355.826 363.41 363.963 351.842C385.89 320.666 416.092 277.728 478.276 220.007C520.9 180.443 553.855 159.006 578.121 151.614C590.226 147.926 600.16 147.735 608.088 150.52C616.026 153.308 622.011 159.101 626.12 167.483C634.345 184.262 634.996 211.297 628.911 244.808C622.83 278.301 610.034 318.19 591.448 360.612Z" stroke="url(#paint33_linear_480_793)" stroke-opacity="0.27" stroke-width="1.49174"/>
<path d="M581.951 360.771C575.061 377.018 568.4 393.607 561.72 410.241C542.651 457.731 523.433 505.587 498.333 546.888C481.398 574.751 461.825 599.559 437.879 619.203C413.95 638.833 385.612 653.343 351.077 660.579C274.456 676.634 222.664 669.668 189.398 650.278C156.126 630.883 141.323 599.023 138.809 565.166C136.293 531.3 146.077 495.482 161.905 468.232C169.82 454.606 179.219 443.17 189.296 435.189C199.352 427.224 210.072 422.704 220.75 422.829C261.434 423.306 288.019 420.998 307.42 414.903C317.145 411.847 325.078 407.837 332.08 402.745C339.074 397.658 345.095 391.522 351.025 384.257C357.449 376.387 363.78 367.181 371.142 356.479C390.974 327.645 418.28 287.946 474.992 234.217C513.867 197.386 544.056 177.28 566.406 170.138C577.554 166.575 586.744 166.24 594.123 168.651C601.511 171.065 607.14 176.253 611.075 183.836C618.951 199.018 619.976 223.691 614.859 254.396C609.746 285.083 598.511 321.723 581.951 360.771Z" stroke="url(#paint34_linear_480_793)" stroke-opacity="0.27" stroke-width="1.49174"/>
<path d="M573.181 361.016C567.095 375.86 561.224 391.009 555.337 406.198C538.534 449.556 521.604 493.241 499.164 531.081C484.025 556.608 466.415 579.403 444.71 597.588C423.023 615.759 397.202 629.365 365.567 636.481C295.366 652.273 247.645 646.795 216.766 629.761C185.882 612.724 171.784 584.092 168.95 553.451C166.116 522.801 174.557 490.186 188.684 465.242C195.748 452.769 204.206 442.262 213.336 434.875C222.444 427.505 232.213 423.242 242.017 423.183C279.437 422.956 303.858 420.435 321.617 414.591C330.52 411.661 337.763 407.893 344.134 403.155C350.497 398.423 355.947 392.756 361.291 386.069C367.083 378.822 372.767 370.37 379.374 360.544C397.167 334.085 421.653 297.671 472.965 248.055C508.142 214.041 535.579 195.339 556.001 188.51C566.186 185.104 574.619 184.652 581.431 186.715C588.252 188.781 593.502 193.386 597.233 200.191C604.704 213.814 606.028 236.153 601.798 264.066C597.57 291.962 587.805 325.353 573.181 361.016Z" stroke="url(#paint35_linear_480_793)" stroke-opacity="0.27" stroke-width="1.49174"/>
<path d="M565.143 361.327C559.822 374.763 554.703 388.469 549.57 402.21C534.922 441.428 520.166 480.932 500.299 515.277C486.898 538.445 471.207 559.193 451.72 575.865C432.25 592.523 408.944 605.153 380.237 612.05C316.517 627.359 272.96 623.203 244.573 608.402C216.181 593.599 202.902 568.115 199.852 540.648C196.802 513.171 203.994 483.751 216.476 461.133C222.718 449.823 230.256 440.262 238.448 433.492C246.618 426.739 255.434 422.763 264.348 422.553C298.445 421.749 320.67 419.093 336.777 413.554C344.854 410.776 351.409 407.269 357.153 402.903C362.891 398.541 367.778 393.353 372.55 387.255C377.724 380.644 382.778 372.954 388.651 364.018C404.46 339.964 426.205 306.878 472.196 261.493C503.728 230.377 528.429 213.151 546.912 206.697C556.128 203.478 563.793 202.939 570.019 204.68C576.254 206.423 581.102 210.468 584.602 216.514C591.612 228.621 593.161 248.653 589.734 273.792C586.308 298.912 577.923 329.06 565.143 361.327Z" stroke="url(#paint36_linear_480_793)" stroke-opacity="0.27" stroke-width="1.49174"/>
<path d="M557.845 361.683C553.251 373.709 548.843 385.969 544.425 398.26C531.818 433.331 519.122 468.649 501.741 499.467C490.018 520.255 476.2 538.923 458.905 554.031C441.627 569.124 420.831 580.706 395.079 587.285C337.896 601.893 298.594 598.89 272.8 586.198C247.002 573.504 234.656 551.088 231.494 526.748C228.331 502.398 234.365 476.164 245.262 455.891C250.711 445.753 257.351 437.154 264.614 431.024C271.857 424.911 279.719 421.249 287.727 420.922C318.444 419.668 338.446 416.955 352.893 411.774C360.14 409.175 366.006 405.949 371.129 401.969C376.246 397.993 380.58 393.298 384.794 387.798C389.364 381.834 393.806 374.916 398.967 366.879C412.85 345.259 431.933 315.541 472.684 274.502C500.626 246.363 522.61 230.685 539.145 224.666C547.388 221.666 554.272 221.067 559.896 222.512C565.528 223.958 569.95 227.467 573.192 232.775C579.684 243.406 581.385 261.164 578.677 283.546C575.971 305.91 568.872 332.819 557.845 361.683Z" stroke="url(#paint37_linear_480_793)" stroke-opacity="0.27" stroke-width="1.49174"/>
<path d="M551.297 362.062C547.391 372.676 543.656 383.49 539.911 394.33C529.23 425.252 518.478 456.38 503.495 483.644C493.391 502.032 481.397 518.589 466.267 532.081C451.153 545.558 432.862 556.021 410.087 562.184C359.493 575.873 324.533 573.856 301.433 563.147C278.33 552.436 267.03 533.004 263.858 511.744C260.684 490.473 265.654 467.412 275.026 449.501C279.712 440.544 285.475 432.923 291.821 427.454C298.146 422.003 305.053 418.684 312.141 418.274C339.425 416.694 357.175 414.005 369.956 409.232C376.369 406.838 381.548 403.913 386.057 400.335C390.559 396.761 394.35 392.568 398.018 387.677C401.999 382.369 405.848 376.232 410.319 369.104C422.335 349.945 438.838 323.633 474.434 287.053C498.844 261.967 518.131 247.905 532.711 242.384C539.977 239.632 546.069 239.003 551.074 240.177C556.086 241.352 560.06 244.348 563.015 248.941C568.935 258.139 570.713 273.654 568.641 293.299C566.571 312.927 560.665 336.607 551.297 362.062Z" stroke="url(#paint38_linear_480_793)" stroke-opacity="0.27" stroke-width="1.49174"/>
<path d="M545.509 362.448C542.253 371.648 539.148 381.016 536.038 390.405C527.167 417.178 518.241 444.117 505.565 467.799C497.018 483.77 486.799 498.186 473.806 510.013C460.829 521.825 445.033 531.1 425.257 536.748C381.299 549.303 350.765 548.102 330.457 539.249C310.145 530.395 300.003 513.86 296.924 495.63C293.844 477.388 297.841 457.487 305.749 441.952C309.703 434.184 314.611 427.555 320.051 422.769C325.47 418.001 331.423 415.054 337.578 414.594C361.377 412.815 376.851 410.226 387.958 405.915C393.534 403.752 398.029 401.147 401.929 397.985C405.823 394.828 409.082 391.149 412.218 386.875C415.624 382.234 418.9 376.885 422.702 370.676C432.912 354.005 446.919 331.133 477.448 299.118C498.387 277.16 514.999 264.783 527.617 259.82C533.903 257.347 539.193 256.715 543.562 257.644C547.938 258.575 551.441 261.083 554.083 264.981C559.376 272.79 561.157 286.097 559.637 303.028C558.119 319.942 553.312 340.404 545.509 362.448Z" stroke="url(#paint39_linear_480_793)" stroke-opacity="0.27" stroke-width="1.49174"/>
<path d="M540.485 362.819C537.838 370.606 535.325 378.529 532.806 386.468C525.628 409.095 518.411 431.848 507.95 451.926C500.898 465.463 492.404 477.711 481.518 487.824C470.646 497.923 457.337 505.941 440.578 510.978C403.297 522.183 377.27 521.63 359.849 514.504C342.424 507.378 333.551 493.654 330.668 478.4C327.783 463.136 330.903 446.377 337.408 433.232C340.661 426.659 344.737 421.037 349.283 416.955C353.808 412.891 358.808 410.342 364.016 409.866C384.283 408.014 397.456 405.605 406.886 401.807C411.623 399.899 415.435 397.634 418.733 394.904C422.025 392.177 424.763 389.022 427.382 385.375C430.229 381.41 432.951 376.857 436.108 371.576C444.573 357.414 456.168 338.015 481.722 310.671C499.253 291.912 513.215 281.287 523.865 276.942C529.169 274.778 533.648 274.172 537.365 274.883C541.089 275.595 544.099 277.64 546.401 280.865C551.012 287.329 552.723 298.463 551.671 312.704C550.62 326.929 546.819 344.186 540.485 362.819Z" stroke="url(#paint40_linear_480_793)" stroke-opacity="0.27" stroke-width="1.49174"/>
<defs>
<linearGradient id="paint0_linear_480_793" x1="-223.218" y1="1146.58" x2="1381.61" y2="-559.609" gradientUnits="userSpaceOnUse">
<stop stop-color="#0D0F11" stop-opacity="0"/>
<stop offset="0.510417"/>
<stop offset="1" stop-opacity="0"/>
</linearGradient>
<linearGradient id="paint1_linear_480_793" x1="-217.105" y1="1140.52" x2="1311.05" y2="-565.654" gradientUnits="userSpaceOnUse">
<stop stop-color="#0D0F11" stop-opacity="0"/>
<stop offset="0.510417"/>
<stop offset="1" stop-opacity="0"/>
</linearGradient>
<linearGradient id="paint2_linear_480_793" x1="-210.415" y1="1134.06" x2="1241.57" y2="-568.798" gradientUnits="userSpaceOnUse">
<stop stop-color="#0D0F11" stop-opacity="0"/>
<stop offset="0.510417"/>
<stop offset="1" stop-opacity="0"/>
</linearGradient>
<linearGradient id="paint3_linear_480_793" x1="-203.149" y1="1127.2" x2="1173.38" y2="-569.088" gradientUnits="userSpaceOnUse">
<stop stop-color="#0D0F11" stop-opacity="0"/>
<stop offset="0.510417"/>
<stop offset="1" stop-opacity="0"/>
</linearGradient>
<linearGradient id="paint4_linear_480_793" x1="-195.317" y1="1119.91" x2="1106.65" y2="-566.589" gradientUnits="userSpaceOnUse">
<stop stop-color="#0D0F11" stop-opacity="0"/>
<stop offset="0.510417"/>
<stop offset="1" stop-opacity="0"/>
</linearGradient>
<linearGradient id="paint5_linear_480_793" x1="-186.917" y1="1112.19" x2="1041.57" y2="-561.376" gradientUnits="userSpaceOnUse">
<stop stop-color="#0D0F11" stop-opacity="0"/>
<stop offset="0.510417"/>
<stop offset="1" stop-opacity="0"/>
</linearGradient>
<linearGradient id="paint6_linear_480_793" x1="-177.964" y1="1104.04" x2="978.293" y2="-553.543" gradientUnits="userSpaceOnUse">
<stop stop-color="#0D0F11" stop-opacity="0"/>
<stop offset="0.510417"/>
<stop offset="1" stop-opacity="0"/>
</linearGradient>
<linearGradient id="paint7_linear_480_793" x1="-168.463" y1="1095.44" x2="916.985" y2="-543.191" gradientUnits="userSpaceOnUse">
<stop stop-color="#0D0F11" stop-opacity="0"/>
<stop offset="0.510417"/>
<stop offset="1" stop-opacity="0"/>
</linearGradient>
<linearGradient id="paint8_linear_480_793" x1="-158.415" y1="1086.39" x2="857.8" y2="-530.439" gradientUnits="userSpaceOnUse">
<stop stop-color="#0D0F11" stop-opacity="0"/>
<stop offset="0.510417"/>
<stop offset="1" stop-opacity="0"/>
</linearGradient>
<linearGradient id="paint9_linear_480_793" x1="-147.833" y1="1076.88" x2="800.876" y2="-515.412" gradientUnits="userSpaceOnUse">
<stop stop-color="#0D0F11" stop-opacity="0"/>
<stop offset="0.510417"/>
<stop offset="1" stop-opacity="0"/>
</linearGradient>
<linearGradient id="paint10_linear_480_793" x1="-136.721" y1="1066.9" x2="746.342" y2="-498.246" gradientUnits="userSpaceOnUse">
<stop stop-color="#0D0F11" stop-opacity="0"/>
<stop offset="0.510417"/>
<stop offset="1" stop-opacity="0"/>
</linearGradient>
<linearGradient id="paint11_linear_480_793" x1="-125.087" y1="1056.43" x2="694.314" y2="-479.087" gradientUnits="userSpaceOnUse">
<stop stop-color="#0D0F11" stop-opacity="0"/>
<stop offset="0.510417"/>
<stop offset="1" stop-opacity="0"/>
</linearGradient>
<linearGradient id="paint12_linear_480_793" x1="-112.938" y1="1045.49" x2="644.893" y2="-458.081" gradientUnits="userSpaceOnUse">
<stop stop-color="#0D0F11" stop-opacity="0"/>
<stop offset="0.510417"/>
<stop offset="1" stop-opacity="0"/>
</linearGradient>
<linearGradient id="paint13_linear_480_793" x1="-100.283" y1="1034.05" x2="598.173" y2="-435.385" gradientUnits="userSpaceOnUse">
<stop stop-color="#0D0F11" stop-opacity="0"/>
<stop offset="0.510417"/>
<stop offset="1" stop-opacity="0"/>
</linearGradient>
<linearGradient id="paint14_linear_480_793" x1="-87.1268" y1="1022.11" x2="554.229" y2="-411.161" gradientUnits="userSpaceOnUse">
<stop stop-color="#0D0F11" stop-opacity="0"/>
<stop offset="0.510417"/>
<stop offset="1" stop-opacity="0"/>
</linearGradient>
<linearGradient id="paint15_linear_480_793" x1="-73.4819" y1="1009.66" x2="513.122" y2="-385.568" gradientUnits="userSpaceOnUse">
<stop stop-color="#0D0F11" stop-opacity="0"/>
<stop offset="0.510417"/>
<stop offset="1" stop-opacity="0"/>
</linearGradient>
<linearGradient id="paint16_linear_480_793" x1="-59.3552" y1="996.704" x2="474.902" y2="-358.768" gradientUnits="userSpaceOnUse">
<stop stop-color="#0D0F11" stop-opacity="0"/>
<stop offset="0.510417"/>
<stop offset="1" stop-opacity="0"/>
</linearGradient>
<linearGradient id="paint17_linear_480_793" x1="-44.7551" y1="983.227" x2="439.607" y2="-330.927" gradientUnits="userSpaceOnUse">
<stop stop-color="#0D0F11" stop-opacity="0"/>
<stop offset="0.510417"/>
<stop offset="1" stop-opacity="0"/>
</linearGradient>
<linearGradient id="paint18_linear_480_793" x1="-29.6884" y1="969.225" x2="407.264" y2="-302.205" gradientUnits="userSpaceOnUse">
<stop stop-color="#0D0F11" stop-opacity="0"/>
<stop offset="0.510417"/>
<stop offset="1" stop-opacity="0"/>
</linearGradient>
<linearGradient id="paint19_linear_480_793" x1="-14.1681" y1="954.692" x2="377.881" y2="-272.761" gradientUnits="userSpaceOnUse">
<stop stop-color="#0D0F11" stop-opacity="0"/>
<stop offset="0.510417"/>
<stop offset="1" stop-opacity="0"/>
</linearGradient>
<linearGradient id="paint20_linear_480_793" x1="1.79619" y1="939.622" x2="351.457" y2="-242.753" gradientUnits="userSpaceOnUse">
<stop stop-color="#0D0F11" stop-opacity="0"/>
<stop offset="0.510417"/>
<stop offset="1" stop-opacity="0"/>
</linearGradient>
<linearGradient id="paint21_linear_480_793" x1="18.1934" y1="924.018" x2="327.983" y2="-212.323" gradientUnits="userSpaceOnUse">
<stop stop-color="#0D0F11" stop-opacity="0"/>
<stop offset="0.510417"/>
<stop offset="1" stop-opacity="0"/>
</linearGradient>
<linearGradient id="paint22_linear_480_793" x1="35.0246" y1="907.862" x2="307.449" y2="-181.633" gradientUnits="userSpaceOnUse">
<stop stop-color="#0D0F11" stop-opacity="0"/>
<stop offset="0.510417"/>
<stop offset="1" stop-opacity="0"/>
</linearGradient>
<linearGradient id="paint23_linear_480_793" x1="52.273" y1="891.156" x2="289.819" y2="-150.816" gradientUnits="userSpaceOnUse">
<stop stop-color="#0D0F11" stop-opacity="0"/>
<stop offset="0.510417"/>
<stop offset="1" stop-opacity="0"/>
</linearGradient>
<linearGradient id="paint24_linear_480_793" x1="69.9274" y1="873.897" x2="275.055" y2="-120.009" gradientUnits="userSpaceOnUse">
<stop stop-color="#0D0F11" stop-opacity="0"/>
<stop offset="0.510417"/>
<stop offset="1" stop-opacity="0"/>
</linearGradient>
<linearGradient id="paint25_linear_480_793" x1="87.9788" y1="856.078" x2="263.112" y2="-89.3394" gradientUnits="userSpaceOnUse">
<stop stop-color="#0D0F11" stop-opacity="0"/>
<stop offset="0.510417"/>
<stop offset="1" stop-opacity="0"/>
</linearGradient>
<linearGradient id="paint26_linear_480_793" x1="106.418" y1="837.698" x2="253.942" y2="-58.9302" gradientUnits="userSpaceOnUse">
<stop stop-color="#0D0F11" stop-opacity="0"/>
<stop offset="0.510417"/>
<stop offset="1" stop-opacity="0"/>
</linearGradient>
<linearGradient id="paint27_linear_480_793" x1="125.231" y1="818.751" x2="247.481" y2="-28.897" gradientUnits="userSpaceOnUse">
<stop stop-color="#0D0F11" stop-opacity="0"/>
<stop offset="0.510417"/>
<stop offset="1" stop-opacity="0"/>
</linearGradient>
<linearGradient id="paint28_linear_480_793" x1="144.411" y1="799.235" x2="243.672" y2="0.652406" gradientUnits="userSpaceOnUse">
<stop stop-color="#0D0F11" stop-opacity="0"/>
<stop offset="0.510417"/>
<stop offset="1" stop-opacity="0"/>
</linearGradient>
<linearGradient id="paint29_linear_480_793" x1="163.944" y1="779.147" x2="242.445" y2="29.619" gradientUnits="userSpaceOnUse">
<stop stop-color="#0D0F11" stop-opacity="0"/>
<stop offset="0.510417"/>
<stop offset="1" stop-opacity="0"/>
</linearGradient>
<linearGradient id="paint30_linear_480_793" x1="183.818" y1="758.486" x2="243.727" y2="57.9096" gradientUnits="userSpaceOnUse">
<stop stop-color="#0D0F11" stop-opacity="0"/>
<stop offset="0.510417"/>
<stop offset="1" stop-opacity="0"/>
</linearGradient>
<linearGradient id="paint31_linear_480_793" x1="204.028" y1="737.248" x2="247.451" y2="85.4382" gradientUnits="userSpaceOnUse">
<stop stop-color="#0D0F11" stop-opacity="0"/>
<stop offset="0.510417"/>
<stop offset="1" stop-opacity="0"/>
</linearGradient>
<linearGradient id="paint32_linear_480_793" x1="224.558" y1="715.431" x2="253.536" y2="112.125" gradientUnits="userSpaceOnUse">
<stop stop-color="#0D0F11" stop-opacity="0"/>
<stop offset="0.510417"/>
<stop offset="1" stop-opacity="0"/>
</linearGradient>
<linearGradient id="paint33_linear_480_793" x1="245.427" y1="693.097" x2="261.935" y2="137.962" gradientUnits="userSpaceOnUse">
<stop stop-color="#0D0F11" stop-opacity="0"/>
<stop offset="0.510417"/>
<stop offset="1" stop-opacity="0"/>
</linearGradient>
<linearGradient id="paint34_linear_480_793" x1="266.561" y1="670.119" x2="272.506" y2="162.759" gradientUnits="userSpaceOnUse">
<stop stop-color="#0D0F11" stop-opacity="0"/>
<stop offset="0.510417"/>
<stop offset="1" stop-opacity="0"/>
</linearGradient>
<linearGradient id="paint35_linear_480_793" x1="287.984" y1="646.558" x2="285.204" y2="186.518" gradientUnits="userSpaceOnUse">
<stop stop-color="#0D0F11" stop-opacity="0"/>
<stop offset="0.510417"/>
<stop offset="1" stop-opacity="0"/>
</linearGradient>
<linearGradient id="paint36_linear_480_793" x1="309.68" y1="622.414" x2="299.946" y2="209.189" gradientUnits="userSpaceOnUse">
<stop stop-color="#0D0F11" stop-opacity="0"/>
<stop offset="0.510417"/>
<stop offset="1" stop-opacity="0"/>
</linearGradient>
<linearGradient id="paint37_linear_480_793" x1="331.634" y1="597.686" x2="316.649" y2="230.725" gradientUnits="userSpaceOnUse">
<stop stop-color="#0D0F11" stop-opacity="0"/>
<stop offset="0.510417"/>
<stop offset="1" stop-opacity="0"/>
</linearGradient>
<linearGradient id="paint38_linear_480_793" x1="353.839" y1="572.372" x2="335.237" y2="251.083" gradientUnits="userSpaceOnUse">
<stop stop-color="#0D0F11" stop-opacity="0"/>
<stop offset="0.510417"/>
<stop offset="1" stop-opacity="0"/>
</linearGradient>
<linearGradient id="paint39_linear_480_793" x1="376.282" y1="546.474" x2="355.633" y2="270.23" gradientUnits="userSpaceOnUse">
<stop stop-color="#0D0F11" stop-opacity="0"/>
<stop offset="0.510417"/>
<stop offset="1" stop-opacity="0"/>
</linearGradient>
<linearGradient id="paint40_linear_480_793" x1="398.949" y1="519.994" x2="377.755" y2="288.137" gradientUnits="userSpaceOnUse">
<stop stop-color="#0D0F11" stop-opacity="0"/>
<stop offset="0.510417"/>
<stop offset="1" stop-opacity="0"/>
</linearGradient>
</defs>
</svg>
